<?xml version="1.0" encoding="utf-8"?>
<!-- Generator: Adobe Illustrator 16.0.0, SVG Export Plug-In . SVG Version: 6.00 Build 0)  -->
<!DOCTYPE svg PUBLIC "-//W3C//DTD SVG 1.1//EN" "http://www.w3.org/Graphics/SVG/1.1/DTD/svg11.dtd">
<svg version="1.1" id="Black" xmlns="http://www.w3.org/2000/svg" xmlns:xlink="http://www.w3.org/1999/xlink" x="0px" y="0px"
	 width="400px" height="400px" viewBox="0 0 400 400" enable-background="new 0 0 400 400" xml:space="preserve">
<path fill="none" stroke="#F7941D" stroke-width="5" stroke-miterlimit="10" d="M145.285,346.6
	c-11.997,21.941-35.295,36.825-62.066,36.825c-39.044,0-70.696-31.651-70.696-70.694c0-39.047,31.652-70.693,70.696-70.693
	c33.061,0,60.819,22.693,68.551,53.355l19.817,51.212L145.285,346.6z"/>
<polygon fill="none" stroke="#F7941D" stroke-width="5" stroke-miterlimit="10" points="388.254,244.124 252.902,244.124 
	252.902,284.111 231.4,342.154 252.902,342.154 252.902,383.544 388.254,383.544 "/>
<path fill="none" stroke="#F7941D" stroke-width="5" stroke-miterlimit="10" d="M250,41.896C250,27.255,239.245,16,224.607,16
	H39.032C24.392,16,10,27.255,10,41.896v106.041C10,162.578,24.392,178,39.032,178h15.466l19.884,22.093L92.053,178h132.555
	C239.245,178,250,162.578,250,147.937V41.896z"/>
<path fill="none" stroke="#F7941D" stroke-width="5" stroke-miterlimit="10" d="M389,41.896C389,27.255,376.217,16,361.575,16
	H176.007C161.362,16,149,27.255,149,41.896v106.041C149,162.578,161.362,178,176.007,178h134.755l20.988,22.093L350.532,178h11.043
	C376.217,178,389,162.578,389,147.937V41.896z"/>
<g>
	<line fill="none" stroke="#F7941D" stroke-miterlimit="10" x1="230.867" y1="176.071" x2="149.939" y2="95.138"/>
	<line fill="none" stroke="#F7941D" stroke-miterlimit="10" x1="243.613" y1="166.377" x2="149.939" y2="72.697"/>
	<line fill="none" stroke="#F7941D" stroke-miterlimit="10" x1="249.721" y1="150.038" x2="149.939" y2="50.254"/>
	<line fill="none" stroke="#F7941D" stroke-miterlimit="10" x1="251.968" y1="127.596" x2="152.182" y2="27.812"/>
	<line fill="none" stroke="#F7941D" stroke-miterlimit="10" x1="209.329" y1="176.968" x2="149.939" y2="117.584"/>
	<line fill="none" stroke="#F7941D" stroke-miterlimit="10" x1="186.884" y1="176.968" x2="149.939" y2="140.021"/>
	<line fill="none" stroke="#F7941D" stroke-miterlimit="10" x1="251.968" y1="105.155" x2="164.313" y2="17.504"/>
	<line fill="none" stroke="#F7941D" stroke-miterlimit="10" x1="251.968" y1="82.712" x2="184.636" y2="15.386"/>
	<line fill="none" stroke="#F7941D" stroke-miterlimit="10" x1="249.968" y1="58.266" x2="207.329" y2="15.63"/>
</g>
</svg>
