<?xml version="1.0" encoding="utf-8"?>
<!-- Generator: Adobe Illustrator 15.1.0, SVG Export Plug-In . SVG Version: 6.00 Build 0)  -->
<!DOCTYPE svg PUBLIC "-//W3C//DTD SVG 1.1//EN" "http://www.w3.org/Graphics/SVG/1.1/DTD/svg11.dtd">
<svg version="1.1" id="Layer_1" xmlns="http://www.w3.org/2000/svg" xmlns:xlink="http://www.w3.org/1999/xlink" x="0px" y="0px"
	 width="584.061px" height="85.186px" viewBox="0 0 584.061 85.186" enable-background="new 0 0 584.061 85.186"
	 xml:space="preserve">
<path fill="#FFFFFF" d="M33.25,36.796c1.162-2.68,2.659-5.27,3.415-8.06c1.577-5.817,4.262-11.162,6.528-16.686
	c1.153-2.811,2.284-5.63,3.508-8.409c0.407-0.922,0.971-1.823,1.646-2.567c1.316-1.451,1.448-1.351,2.946-0.184
	c0.609,0.475,1.468,0.901,2.206,0.886c3.984-0.081,7.971-0.235,11.947-0.515c1.918-0.134,2.895,0.212,3.239,2.167
	c0.445,2.513,0.76,5.079,0.802,7.627c0.151,9.317,0.201,18.635,0.219,27.954c0.011,5.8-0.11,11.601-0.165,17.402
	c-0.038,3.919,0.161,7.908-0.106,11.815c-1.052,0.289-2.546,0.037-3.656,0.037c-2.275,0-4.547-0.204-6.823-0.137
	c-2.192,0.063-4.38,0.339-6.585,0.256c-0.569-1.068-0.175-2.921-0.175-4.138c0-0.88,0.116-1.766,0.117-2.615
	c0.012-8.617,0.005-17.233-0.358-25.933c0.017,0.425-0.455,1.164-0.613,1.565c-0.242,0.616-0.486,1.231-0.732,1.846
	c-0.472,1.181-0.948,2.359-1.43,3.535c-0.963,2.351-1.944,4.692-2.941,7.027c-1.991,4.664-4.043,9.301-6.124,13.924
	c-0.429,0.954-0.908,1.904-1.218,2.896c-0.282,0.899-0.867,1.631-1.209,2.513c-3.072,0.172-6.277,0.23-9.356,0.064
	c-0.273-0.931-0.652-1.704-1.014-2.567c-1.833-4.372-3.285-9.031-4.956-13.515c-1.794-4.809-3.595-9.614-5.392-14.423
	c-0.109-0.292-0.218-0.583-0.327-0.874c0.139,0.37-0.056,1.15-0.076,1.553c-0.03,0.619-0.06,1.239-0.091,1.858
	c-0.06,1.237-0.121,2.475-0.181,3.71c-0.121,2.466-0.242,4.933-0.362,7.396c-0.226,4.623-0.687,9.321-0.675,13.936
	c0.002,0.477,0.21,1.683-0.061,2.111c-0.258,0.412-0.775,0.26-1.305,0.26H9.883c-3.074,0-6.155,0.045-9.228-0.002
	c-0.543-3.982,0.292-8.238,0.244-12.258C0.732,42.297,0.488,28.34,0.255,14.382C0.198,10.963,0.028,7.545,0.001,4.125
	c-0.017-2.094,0.238-2.324,2.275-2.328c5.786-0.015,11.573-0.04,17.359,0.06c1.651,0.028,2.76,1.108,3.221,2.729
	c0.908,3.193,1.925,6.364,2.672,9.596C27.308,21.877,29.641,29.384,33.25,36.796 M3.591,4.198
	C3.318,24.387,2.025,44.102,3.316,63.835c0.047,0.731,0.231,1.455,0.322,2.008h9.178c0.14-0.684,0.26-1.043,0.28-1.406
	c0.392-7.391,0.778-14.78,1.155-22.172c0.203-3.982,0.389-7.967,0.583-11.951c0.073-1.492,0.826-1.679,1.802-1.276
	c3.133,13.131,8.258,25.252,13.103,37.418h6.726c5.362-11.438,10.323-22.93,14.26-34.841c0.323-0.977,0.793-1.904,1.231-2.839
	c0.407-0.873,1.068-0.963,2.247-0.308v37.588c4.141-0.143,7.902-0.065,11.766-0.521c-0.146-4.195-0.374-8.074-0.397-11.954
	c-0.04-6.651-0.008-13.307,0.098-19.957c0.106-6.646,0.497-13.288,0.441-19.931c-0.024-2.971,0.38-6.062-0.768-8.973
	c-0.481-0.058-0.856-0.134-1.232-0.143c-3.786-0.086-7.573-0.224-11.356-0.182c-0.681,0.008-1.65,0.615-1.973,1.221
	c-1.109,2.084-1.995,4.289-2.962,6.448c-3.836,8.572-7.7,17.131-11.474,25.729c-0.609,1.389-1.525,2.14-2.919,2.324
	c-0.912,0.121-1.854,0.022-2.846,0.022c-0.469-0.947-0.979-1.852-1.378-2.804c-2.536-6.046-4.184-12.369-5.96-18.664
	c-1.236-4.378-2.955-8.62-4.442-12.928c-0.348-1.01-0.934-1.568-2.075-1.561C12.46,4.216,8.195,4.198,3.591,4.198"/>
<path fill="#FFFFFF" d="M138.688,67.626c0.08,0.324-9.555,0.495-10.406,0.511c-1.797,0.033-3.592-0.08-5.392-0.127
	c-0.166-4.749,0.194-9.604,0.272-14.366c0.078-4.834,0.143-9.669,0.149-14.503c0.016-10.722-0.168-21.444-0.268-32.164
	c-0.005-0.663-0.107-1.333-0.03-1.983c0.324-2.694,1.253-3.426,3.992-3.694c1.804-0.176,3.618-0.034,5.425-0.118
	c1.745-0.081,3.449-0.415,5.208-0.206c0.332,0.039-0.168,4.254-0.194,4.712c-0.093,1.67,0.161,3.336,0.12,5.006
	c-0.179,7.188,0.16,14.39,0.302,22.207c0.947-0.847,1.451-1.204,1.837-1.659c2.329-2.757,4.673-5.501,6.925-8.32
	c1.105-1.383,2.349-1.952,4.163-1.875c1.861,0.079,3.723,0.087,5.584,0.079c1.007-0.005,2.014-0.017,3.021-0.023
	c0.716-0.006,2.005-0.288,2.677-0.024c0.245,0.096,0.232,0.25,0.421,0.396c0.427,0.33,0.587,0.43,0.901,0.906
	c0.259,0.391,0.904,0.972,0.715,1.497c-0.09,0.25-0.462,0.458-0.612,0.625c-0.251,0.282-0.486,0.67-0.755,0.972
	c-1.374,1.544-2.748,3.09-4.122,4.634c-1.367,1.537-2.733,3.073-4.1,4.609c-0.368,0.414-4.2,4.376-4.068,4.575
	c3.469,5.242,6.689,10.242,10.052,15.144c2.288,3.335,4.764,6.542,7.185,9.785c0.589,0.789,1.138,1.521,0.651,2.568
	c-0.487,1.047-1.409,0.77-2.231,0.768c-2.737-0.006-5.477-0.102-8.21-0.021c-1.902,0.055-3.668,0.346-5.573,0.227
	c-0.433-0.026-1.101,0.066-1.413-0.196c-0.488-0.411-0.51-1.277-0.762-1.833c-0.307-0.68-0.596-1.387-0.924-2.059
	c-0.438-0.9-0.983-1.745-1.467-2.621c-2.2-3.982-4.593-7.857-6.932-11.762c-0.27-0.452-0.701-0.81-1.185-1.351
	c-1.749,1.694-0.832,3.677-1.02,5.416c-0.212,1.976-0.346,3.967-0.356,5.951c-0.008,1.461,0.124,2.914,0.206,4.373
	C138.547,64.99,138.371,66.341,138.688,67.626 M125.019,4.814c0.139,20.247,0.278,40.511,0.419,60.89
	c3.831-0.377,7.343,0.606,10.788-0.302c0.198-3.28,0.46-6.397,0.553-9.521c0.094-3.17,0.021-6.349,0.021-9.5
	c4.005-1.277,4.257-1.211,6.377,2.194c1.607,2.578,3.197,5.171,4.698,7.811c1.173,2.063,2.241,4.19,3.281,6.325
	c0.743,1.522,1.721,2.276,3.561,2.108c2.165-0.196,4.364-0.018,6.548-0.024c0.984-0.004,1.97-0.065,3.279-0.112
	c-0.508-0.874-0.757-1.368-1.065-1.82c-3.044-4.474-6.069-8.961-9.158-13.403c-2.179-3.139-4.448-6.214-6.943-9.688
	c3.896-5.539,9.315-10.429,13.978-16.187c-3.358,0-6.306,0.169-9.224-0.053c-2.387-0.182-3.869,0.776-5.265,2.568
	c-2.214,2.844-4.661,5.507-6.985,8.27c-1.153,1.367-2.435,1.62-3.879,0.772c-0.241-5.354-0.62-10.561-0.671-15.771
	C135.28,14.1,135.55,8.827,135.68,3.527c-1.558,0-2.823,0.214-3.98-0.045C129.425,2.974,127.411,3.425,125.019,4.814"/>
<path fill="#FFFFFF" d="M318.756,42.846c-0.692,2.673-1.38,5.271-2.034,7.875c-1.229,4.882-3.99,8.627-7.966,11.72
	c-3.987,3.103-8.565,4.562-13.364,5.146c-3.344,0.408-6.817,0.033-10.204-0.294c-2.522-0.244-5.088-0.712-7.464-1.561
	c-2.193-0.78-4.355-1.949-6.188-3.389c-4.673-3.662-8.354-8.246-9.263-14.238c-0.735-4.836-1.984-9.667-1.361-14.678
	c0.36-2.893,0.174-5.855,0.554-8.746c0.602-4.582,3.09-8.378,6.021-11.733c6.297-7.212,14.559-10.489,23.979-10.569
	c7.367-0.063,13.266,3.373,18.124,8.804c2.836,3.169,5.113,6.562,6.044,10.809c0.436,1.986,1.311,3.878,2.152,6.291
	c-1.365,0.063-2.498,0.459-3.252,0.087c-1.961-0.968-3.868-0.652-5.852-0.39c-5.091,0.677-5.076,0.649-6.848-4.029
	c-1.593-4.204-4.936-6.158-9.156-6.621c-5.489-0.604-11.959,2.37-14.41,8.782c-1.363,3.567-1.321,7.049-1.234,10.631
	c0.04,1.691,0.76,3.381,0.709,5.057c-0.151,4.926,2.982,7.541,6.592,9.835c4.595,2.921,9.39,2.862,14.04,0.284
	c3.117-1.728,5.204-4.377,5.341-8.203c0.076-2.098,0.199-2.23,2.328-2.332c1.606-0.078,3.226,0.079,4.839,0.081
	c1.035,0.002,2.137,0.12,3.094-0.18C316.074,40.627,317.646,41.088,318.756,42.846 M306.22,43.929
	c-0.238,0.219-0.337,0.271-0.373,0.35c-0.16,0.341-0.336,0.678-0.439,1.035c-1.346,4.613-4.42,7.318-8.787,9.333
	c-7.332,3.383-19.559-2.163-20.771-12.32c-0.426-3.571-0.637-7.188-0.644-10.787c-0.015-6.83,4.83-14.205,12.33-15.727
	c6.179-1.253,11.985,0.391,14.797,5.18c0.614,1.048,1.028,2.231,1.413,3.395c0.29,0.878,0.598,1.632,1.666,1.622
	c2.982-0.03,5.964-0.083,9.334-0.133c-0.52-1.382-1.025-2.308-1.213-3.295c-1.299-6.78-5.903-11.208-11.137-14.894
	c-5.67-3.992-12.132-4.698-18.724-2.464c-2.842,0.965-5.588,2.282-8.252,3.679c-6.351,3.329-10.229,8.81-11.9,15.576
	c-1.41,5.713-1.237,11.648-0.378,17.503c0.165,1.121,0.557,2.215,0.665,3.337c0.802,8.356,7.523,16.607,15.548,18.897
	c6.205,1.771,12.558,1.896,18.894,1.066c5.34-0.701,9.457-3.912,13.027-7.646c2.98-3.115,4.023-7.227,4.404-11.465
	c0.037-0.428-0.144-0.877-0.203-1.202C312.282,44.612,309.287,44.275,306.22,43.929"/>
<path fill="#FFFFFF" d="M502.903,22.023c2.438-1.048,4.969-1.264,7.537-0.766c2.584,0.502,2.894,1.064,2.886,3.664
	c-0.014,3.693,0.091,7.387,0.205,11.078c0.224,7.209,0.763,14.422,0.632,21.623c-0.071,3.823-1.05,7.687-2.043,11.419
	c-0.684,2.565-2.483,4.426-4.841,6.04c-3.758,2.57-7.81,3.46-12.163,4.128c-4.269,0.653-8.449,1.061-12.74,0.462
	c-3.509-0.49-6.631-1.77-9.092-4.312c-2.732-2.823-3.738-6.301-3.328-10.209c0.104-1,0.521-1.625,1.553-1.678
	c1.504-0.079,3.015-0.197,4.516-0.133c1.876,0.082,3.744,0.332,5.615,0.51l0.17-0.567c-0.793-0.357-1.562-0.782-2.383-1.062
	c-4.901-1.66-8.122-4.76-9.693-9.877c-1.95-6.347-1.738-12.468,0.348-18.698c1.276-3.813,2.843-7.302,5.493-10.477
	c2.665-3.192,5.914-4.652,9.735-5.255c5.947-0.938,11.492,0.275,16.591,3.491C502.215,21.604,502.534,21.796,502.903,22.023
	 M504.814,23.825c-0.099,0.37-0.182,0.55-0.188,0.732c-0.027,0.809,0.357,1.813-0.923,2.021c-1,0.164-1.239-0.642-1.581-1.32
	c-0.998-1.973-2.64-3.21-4.675-3.95c-3.151-1.147-6.405-2.102-9.753-1.621c-2.485,0.356-5.084,0.959-7.268,2.136
	c-2.79,1.504-4.749,4.216-6.015,7.066c-3.459,7.794-5.532,15.801-1.832,24.188c0.037,0.086,0.037,0.187,0.07,0.274
	c1.15,3.227,3.299,5.583,6.479,6.783c2.467,0.933,5.025,1.801,7.618,2.194c4.295,0.646,8.582,0.642,11.938-2.911
	c0.364-0.387,0.912-0.602,1.406-0.915c0.922,0.905,2.352,0.998,2.437,2.641c0.223,4.325-2.628,8.313-6.824,9.571
	c-3.664,1.098-8.853,0.959-11.274-2.449c-1.271-1.791-2.851-2.219-4.948-2.521c-2.167-0.313-4.363-0.339-6.549-0.422
	c-1.486,4.609,2.156,9.902,6.384,11.394c5.777,2.037,11.648,1.225,17.476,0.334c2.127-0.326,4.287-0.963,6.224-1.895
	c2.628-1.265,5.308-2.748,6.424-5.707c1.371-3.636,2.349-7.372,2.201-11.339c-0.268-7.397-0.502-14.799-0.67-22.199
	c-0.092-4.062-0.016-8.127-0.016-12.107C507.745,22.856,507.29,22.861,504.814,23.825 M483.495,63.517
	c0.86,1.053,1.45,1.769,2.031,2.488c3.136,3.89,8.508,4.393,12.232,1.063c1.646-1.471,2.331-3.321,1.651-5.801
	C494.586,65.302,489.234,64.865,483.495,63.517"/>
<path fill="#FFFFFF" d="M337.694,66.402c-0.016-0.324-6.246-0.225-6.854-0.185c-0.943,0.062-1.876,0.161-2.814,0.242
	c-1.043,0.091-2.09-0.093-3.133-0.007c-0.592,0.049-0.664,0.188-0.871-0.377c-0.377-1.024,0.072-2.436,0.108-3.505
	c0.054-1.547,0.112-3.094,0.173-4.641c0.112-2.989,0.228-5.979,0.297-8.971c0.043-1.888-0.34-3.781-0.312-5.668
	c0.143-10.35,0.368-20.696,0.523-31.044c0.037-2.469-0.015-4.944-0.174-7.407c-0.074-1.186-0.496-2.347-0.82-3.787
	c1.865-0.199,3.707-0.414,5.552-0.588c1.418-0.133,2.845-0.179,4.261-0.326c3.023-0.314,4.741,1.025,4.757,4.14
	c0.019,3.505-0.309,7.01-0.392,10.516c-0.073,3.097-0.016,6.194-0.016,9.657c0.871-0.748,1.644-1.382,2.383-2.048
	c3.557-3.196,7.598-4.466,12.322-3.205c2.377,0.634,4.771,1.089,6.765,2.779c1.842,1.562,3.323,3.293,4.305,5.513
	c1.642,3.703,2.142,7.482,1.851,11.556c-0.289,4.042,0.248,8.135,0.194,12.204c-0.067,5.112-0.364,10.224-0.573,15.592
	c-3.49,0-6.932,0.003-10.371-0.002c-1.982-0.002-2.858-0.859-2.812-2.975c0.066-3.035,0.342-6.069,0.355-9.104
	c0.022-4.737,0.014-9.479-0.211-14.209c-0.094-1.959-0.713-3.908-1.211-5.831c-0.485-1.876-1.924-2.721-3.738-3.031
	c-2.207-0.377-4.18,0.032-5.657,1.836c-1.802,2.199-2.742,4.825-2.94,7.583c-0.5,6.905-0.812,13.824-1.138,20.741
	C337.433,63.322,337.62,64.802,337.694,66.402 M335.594,63.62c0.354-7.437,0.812-14.534,0.988-21.641
	c0.093-3.705,1.312-6.894,3.489-9.731c2.125-2.765,5.074-2.909,8.264-2.285c2.639,0.516,3.752,2.269,4.5,4.586
	c1.186,3.667,1.477,7.464,1.492,11.247c0.02,4.933-0.346,9.864-0.501,14.798c-0.038,1.188,0.101,2.383,0.163,3.691h9.562
	c0.182-0.562,0.334-0.822,0.342-1.091c0.146-5.12,0.323-10.239,0.39-15.36c0.045-3.42-0.261-6.853-0.069-10.259
	c0.215-3.86-0.875-7.34-2.634-10.609c-1.697-3.157-4.451-5.001-8.026-5.837c-2.765-0.647-5.294-0.694-8.043,0.233
	c-2.814,0.952-4.521,3.094-6.437,5.006c-1.116,1.114-2.164,1.592-3.919,1.341V2.324c-2.797,0.201-5.295,0.382-8.193,0.591
	c-0.113,6.952-0.24,13.636-0.329,20.32c-0.088,6.839-0.253,13.679-0.169,20.516c0.082,6.698-0.836,13.398-0.191,20.423
	C329.476,63.983,332.388,63.81,335.594,63.62"/>
<path fill="#FFFFFF" d="M437.375,66.26c-2.523,0.374-5.085,0.295-7.626,0.214c-2.29-0.072-4.556,0-6.831,0
	c-0.63,0-1.307,0.058-1.926-0.016c-0.185-0.021-0.202-4.254-0.206-4.568c-0.081-7.121-0.104-14.244-0.011-21.365
	c0.068-5.125,0.36-10.248,0.55-15.372c0.017-0.475,0.009-0.951,0.002-1.428c-0.02-1.07-0.476-2.521,0.047-3.11
	c0.612-0.695,2.059-0.787,3.166-0.882c2.261-0.192,4.537-0.22,6.808-0.301c1.312-0.047,2.197,0.454,2.158,2.149
	c3.727-2.042,7.399-3.467,11.381-4.024c5.903-0.824,12.305,2.169,15.338,7.694c2.626,4.784,3.447,9.927,3.291,15.36
	c-0.199,6.938-0.081,13.886-0.09,20.828c0,0.377,0.062,0.76,0.139,1.129c0.521,2.5,0.216,2.71-2.161,2.756
	c-3.297,0.06-6.587,0.412-10.032,0.651c-1.25-0.979-1.569-2.366-1.55-4.118c0.064-5.608,0.129-11.232-0.216-16.828
	c-0.237-3.853-0.917-7.724-1.836-11.479c-0.86-3.519-4.468-4.632-7.394-2.546c-1.468,1.046-2.669,2.187-2.682,4.365
	c-0.033,5.789-0.335,11.575-0.545,17.362c-0.091,2.463-0.312,4.925-0.301,7.384C436.861,61.956,437.153,63.792,437.375,66.26
	 M461.692,62.386c0.054-0.767,0.154-1.508,0.147-2.246c-0.045-5.312-0.219-10.625-0.142-15.934
	c0.079-5.349-0.007-10.631-2.067-15.69c-1.671-4.108-4.562-6.88-8.729-8.379c-3.834-1.379-7.511-0.413-11.133,0.764
	c-2.162,0.704-4.204,1.717-5.691,3.61c-0.332,0.424-1.24,0.798-1.665,0.633c-0.417-0.162-0.616-1.021-0.801-1.608
	c-0.166-0.523-0.186-1.094-0.271-1.646c-2.369-0.913-4.559-0.298-7.09,0.34c0,0.909-0.062,1.841,0.012,2.763
	c0.268,3.292,0.777,6.578,0.825,9.872c0.064,4.334-0.153,8.676-0.378,13.008c-0.247,4.73-0.655,9.453-0.957,14.184
	c-0.038,0.625,0.139,1.267,0.244,2.144h10.845c0.193-2.443,0.494-4.789,0.543-7.144c0.107-5.315,0.05-10.637,0.147-15.954
	c0.045-2.46,0.288-4.916,0.457-7.372c0.202-2.928,4.086-5.53,6.999-5.695c2.853-0.16,6.037,2.051,6.751,5.08
	c0.757,3.211,1.305,6.518,1.493,9.809c0.292,5.117,0.168,10.258,0.299,15.385c0.046,1.744-0.197,3.563,0.651,5.346
	C455.396,63.226,458.472,62.816,461.692,62.386"/>
<path fill="#FFFFFF" d="M416.049,65.421c-1.66,0.293-2.943,0.475-4.207,0.752c-2.634,0.578-5.129-0.05-7.479-1.076
	c-0.797-0.347-1.231-1.521-1.769-2.23c-2.182,1.119-4.303,2.652-6.671,3.335c-4.948,1.426-10.138,2.137-15.151,0.643
	c-3.75-1.119-6.483-3.849-7.646-7.786c-0.664-2.245-1.611-4.345-1.658-6.843c-0.095-5.047,2.611-9.353,8.543-10.796
	c4.779-1.164,9.488-2.618,14.198-4.042c1.052-0.318,2.1-0.908,2.936-1.624c1.442-1.234,1.411-2.546,0.154-3.964
	c-2.932-3.306-8.422-2.597-10.155,1.465c-0.765,1.79-1.731,2.527-3.633,2.31c-1.785-0.203-3.59-0.272-5.39-0.328
	c-1.216-0.035-2.438,0.108-3.653,0.07c-0.681-0.021-1.628-0.037-1.951-0.45c-0.34-0.434-0.209-1.37-0.049-2.028
	c0.174-0.708,0.631-1.345,0.941-2.022c3.645-7.968,12.193-13.138,21.056-12.85c3.611,0.115,7.171,0.175,10.596,1.651
	c5.92,2.553,9.729,6.66,10.777,13.198c0.703,4.375,0.241,8.719,0.062,13.073c-0.188,4.551-0.552,9.094-0.709,13.645
	c-0.042,1.198,0.409,2.411,0.599,3.623C415.912,63.919,415.97,64.704,416.049,65.421 M412.571,63.395
	c0.233-5.599,0.418-10.714,0.674-15.825c0.155-3.125,0.501-6.24,0.617-9.366c0.17-4.561-0.371-8.978-3.772-12.441
	c-2.86-2.914-6.263-4.563-10.423-5.244c-6.861-1.12-13.016,0.066-18.619,4.101c-2.73,1.966-4.949,4.339-5.51,7.985
	c2.1,0.218,4.059,0.447,6.023,0.606c0.559,0.046,1.136-0.187,1.696-0.16c0.989,0.047,1.705-0.317,1.974-1.261
	c0.566-1.997,2.33-2.573,3.854-3.528c3.82-2.394,9.008,0.098,10.832,3.711c1.077,2.132,0.747,3.608-1.07,5.311
	c-1.942,1.818-4.345,2.558-6.853,3.213c-4.305,1.128-8.564,2.418-12.832,3.682c-3.216,0.951-4.68,3.332-5.171,6.492
	c-0.511,3.274,0.614,6.237,1.964,9.049c1.631,3.4,4.359,5.432,8.352,5.308c1.711-0.053,3.424-0.138,5.135-0.097
	c4.623,0.112,8.483-1.635,11.844-4.695c0.54-0.49,1.127-0.93,2.003-1.646c0.534,0.918,1.135,1.562,1.299,2.303
	c0.514,2.31,1.975,3.053,4.148,2.853C410.043,63.623,411.35,63.505,412.571,63.395"/>
<path fill="#FFFFFF" d="M97.243,31.867c-5.945-0.37-8.498,0.772-11.379,5.022c-3.183,1.082-6.361-0.011-9.536-0.207
	c-1.436-0.089-2.402-2.141-1.731-3.522c0.821-1.688,1.639-3.516,2.93-4.812c3.421-3.435,7.193-6.255,12.297-7.042
	c5.672-0.875,11.138-0.285,16.614,1.072c4.107,1.018,6.619,3.742,7.542,7.692c1.901,8.132,3.064,16.353,2.057,24.755
	c-0.369,3.067,0.282,6.025,1.542,8.862c0.854,1.922,0.608,2.236-1.433,2.439c-1.599,0.158-3.217,0.27-4.781,0.608
	c-1.901,0.413-3.756,1.042-6.02,1.69c-1.176-0.944-0.894-2.878-1.254-4.545c-2.889,1.155-5.707,2.176-8.434,3.398
	c-2.847,1.279-5.846,1.33-8.84,1.326c-1.938-0.004-3.907-0.229-5.808-0.616c-2.795-0.57-4.735-2.69-6.07-4.865
	c-2.907-4.736-3.826-9.851-1.11-15.152c0.915-1.787,2.118-3.164,4.024-3.77c3.058-0.972,6.114-1.979,9.232-2.721
	c3.502-0.833,6.603-2.27,9.223-4.771C98.146,34.955,98.259,34.669,97.243,31.867 M76.146,34.322
	c1.373,0.148,2.535,0.087,3.568,0.423c2.698,0.878,4.744,0.008,6.688-1.865c2.67-2.573,5.953-3.402,9.638-3.179
	c1.812,0.108,2.773,0.934,3.396,2.479c0.868,2.149,0.381,4.371-1.358,5.98c-2.475,2.292-5.244,4.065-8.569,4.865
	c-2.304,0.556-4.593,1.17-6.905,1.691c-4.101,0.926-7.055,2.935-8.053,7.372c-0.865,3.843,0.082,7.323,2.251,10.23
	c0.995,1.335,2.088,2.655,3.534,3.521c1.777,1.062,3.321,0.586,5.256,0.654c3.343,0.116,6.789,0.44,9.901-1.078
	c2.465-1.203,4.99-2.287,7.439-3.521c2.085-1.049,2.876-0.676,3.135,1.646c0.061,0.547,0.179,1.088,0.322,1.939
	c2.87-0.56,5.583-1.089,8.029-1.564c-0.147-3.215-0.348-6.037-0.386-8.863c-0.041-2.923,0.258-5.858,0.087-8.77
	c-0.319-5.482-0.757-10.964-2.417-16.263c-0.759-2.42-2.124-4.276-4.544-5.106c-5.561-1.909-11.3-2.381-17.128-1.793
	c-0.84,0.084-1.709,0.289-2.475,0.637c-4.284,1.95-8.186,4.402-10.635,8.618C76.612,32.909,76.458,33.529,76.146,34.322"/>
<path fill="#FFFFFF" d="M561.602,44.932c-9.751,0.509-19.479,1.018-29.201,1.522c-0.701,2.74-0.149,4.051,2.01,5.498
	c3.933,2.637,7.951,2.395,11.825,0.15c1.271-0.734,2.021-2.367,3.187-3.809c2.888,0.183,6.076,0.379,9.264,0.585
	c1.975,0.129,2.207,0.414,2.038,2.428c-0.204,2.439-0.987,4.614-2.729,6.422c-6.687,6.941-14.714,9.204-24.047,6.963
	c-1.292-0.31-2.584-0.625-3.852-1.02c-5.172-1.61-7.935-5.66-10.084-10.223c-3.504-7.435-3.006-15.079-0.059-22.405
	c1.899-4.725,5.547-8.397,10.567-10.18c2.756-0.979,5.574-1.944,8.447-2.391c7.855-1.218,15.166,2.6,18.957,9.71
	c2.541,4.77,3.951,9.862,3.871,15.312C561.792,43.866,561.7,44.232,561.602,44.932 M550.155,51.101
	c-1.21,2.545-3.438,3.771-6.118,4.531c-3.712,1.057-7.069,0.581-10.322-1.513c-2.318-1.493-3.732-3.409-3.94-6.184
	c-0.192-2.563,0.745-3.604,3.308-3.676c6.636-0.188,13.274-0.335,19.906-0.609c2.325-0.097,4.638-0.516,7.074-0.801
	c-0.17-6.612-2.565-12.082-6.119-17.134c-0.32-0.455-0.792-0.824-1.245-1.164c-4.33-3.245-8.97-5.267-14.561-3.848
	c-3.401,0.863-6.852,1.59-9.79,3.639c-4.854,3.383-7.372,7.993-8.333,13.928c-1.196,7.397,0.606,13.7,5.116,19.407
	c0.796,1.008,1.872,1.921,3.01,2.516c5.577,2.914,11.477,3.847,17.632,2.254c4.411-1.143,8.328-3.188,11.158-6.915
	c0.911-1.201,1.895-2.429,1.084-4.433L550.155,51.101L550.155,51.101z"/>
<path fill="#FFFFFF" d="M210.922,47.706c-9.503,0.433-18.45,0.841-27.411,1.249c-0.334,3.266,0.948,5.192,4.104,5.723
	c4.47,0.75,8.495,0.083,11.108-4.164c0.757-1.229,1.991-1.145,3.035-1.004c2.06,0.281,4.08,0.865,6.12,1.301
	c1.376,0.293,2.004,1.16,1.65,2.476c-0.367,1.358-0.713,2.849-1.526,3.939c-3.263,4.382-7.266,7.477-13.052,8.124
	c-5.5,0.617-10.748-0.009-15.889-1.759c-4.829-1.645-7.878-5.14-9.248-10.02c-0.894-3.187-1.998-6.397-2.261-9.657
	c-0.292-3.646-0.018-7.397,0.515-11.028c0.678-4.633,4.141-7.449,8.006-9.298c4.948-2.367,10.202-4.063,15.775-4.473
	c4.161-0.307,7.307,1.506,9.967,4.469c4.171,4.646,6.651,10.07,7.581,16.244C209.774,42.33,210.353,44.8,210.922,47.706
	 M208.427,45.636c-0.46-2.279-0.88-4.293-1.272-6.312c-0.975-5.023-2.992-9.497-6.271-13.512c-3.032-3.71-6.615-5.068-11.294-4.28
	c-4.445,0.75-8.69,2.169-12.69,4.072c-3.852,1.834-6.809,4.7-7.303,9.449c-0.64,6.172,0.208,12.115,2.177,17.937
	c1.278,3.778,3.646,6.538,7.453,8.089c3.021,1.229,6.136,1.798,9.332,2.299c5.188,0.812,9.868-0.372,13.959-3.415
	c2.204-1.642,4.263-3.72,4.925-6.911c-1.941-0.439-3.662-0.938-5.417-1.163c-0.577-0.074-1.453,0.404-1.836,0.902
	c-2.711,3.528-6.592,4.503-10.62,4.393c-4.668-0.127-6.434-0.522-8.083-5.533c-0.489-1.483-0.076-3.266-0.076-4.979
	c0.014,0.131,5.373-0.096,5.785-0.111c2.682-0.097,5.327-0.34,8.002-0.488c2.875-0.161,5.754-0.006,8.629-0.116
	C205.305,45.897,206.778,45.752,208.427,45.636"/>
<path fill="#FFFFFF" d="M583.754,64.06c-1.677,0-3.468-0.065-5.252,0.02c-1.883,0.09-3.771,0.245-5.641,0.516
	c-2.624,0.379-3.226,0.159-3.693-2.427c-0.539-2.975-0.847-5.993-1.152-9.004c-0.129-1.278,0.692-2.241,1.845-1.922
	c3.374,0.938,6.604-0.077,9.882-0.412c1.13-0.115,1.854,0.137,2.092,1.322c0.742,3.71,1.494,7.417,2.224,11.129
	C584.086,63.435,583.931,63.625,583.754,64.06 M571.149,62.302c1.969-0.113,3.632-0.246,5.298-0.295
	c1.679-0.049,3.358-0.01,5.376-0.01c-0.693-2.938-1.353-5.728-2.078-8.804c-3.117,0.291-6.148,0.576-9.496,0.89
	C570.559,56.925,570.842,59.502,571.149,62.302"/>
<path fill="#FFFFFF" d="M232.447,65.078c-1.156,0.123-1.98,0.265-2.809,0.29c-3.228,0.099-6.459,0.091-9.683,0.271
	c-1.245,0.07-1.772-0.42-1.954-1.502c-0.094-0.56-0.117-1.136-0.12-1.706c-0.012-2.92-0.006-5.84-0.006-9.09
	c4.345,0.021,8.943,0.663,13.141-1.772c1.509,2.312,0.403,4.521,0.649,6.598C231.919,60.314,232.152,62.465,232.447,65.078
	 M220.134,63.144h10.028v-8.299c-3.514,0.357-6.75,0.688-10.028,1.021V63.144z"/>
<path fill="#FFFFFF" d="M479.518,43.425c0.011-0.465,0.021-0.928,0.021-1.383c0-1.003,0.326-1.995,0.534-2.973
	c0.241-1.129,0.509-2.253,0.848-3.356c1.292-4.208,4.778-6.107,8.689-6.868c4.315-0.84,8.047,0.798,10.816,4.254
	c1.085,1.353,1.549,2.993,1.489,4.794c-0.161,4.877-1.86,9.118-5.356,12.497c-3.678,3.553-9.177,4.135-13.483,1.905
	c-2.364-1.225-3.23-3.862-3.502-6.514C479.497,45.011,479.503,44.216,479.518,43.425 M498.746,37.682
	c0.002-0.297-0.004-0.59-0.019-0.867c-0.037-0.757,0.025-1.559-0.359-2.239c-0.395-0.695-0.896-1.351-1.481-1.893
	c-1.216-1.124-2.804-1.695-4.449-1.722c-1.374-0.022-2.643,0.072-3.901,1.175c-0.949,0.832-2.509,0.992-3.545,2.076
	c-2.867,2.996-3.289,11.26-1.576,14.08c0.971,1.595,2.049,2.771,4.092,2.224c1.996-0.536,4.116-0.857,5.929-1.775
	c2.604-1.316,4.571-3.408,4.967-6.521c0.128-1.011,0.158-2.03,0.267-3.042C498.717,38.708,498.743,38.19,498.746,37.682"/>
<path fill="#FFFFFF" d="M392.005,57.883c-2.704,0.549-4.73-0.879-6.456-2.419c-3.098-2.769-1.909-7.582,2.077-8.797
	c1.893-0.576,3.896-0.771,5.826-1.235c1.468-0.353,2.915-0.808,4.34-1.306c2.034-0.713,3.282,0.002,3.023,2.133
	c-0.319,2.615-0.844,5.246-1.653,7.748c-0.813,2.502-3.019,3.525-5.517,3.865C393.087,57.948,392.508,57.883,392.005,57.883
	 M398.641,46.998c-2.88,0.521-5.215,0.9-7.528,1.382c-1.107,0.229-2.247,0.506-3.245,1.013c-1.987,1.006-2.128,2.972-0.646,4.636
	c1.976,2.221,4.396,1.856,6.854,1.428c1.414-0.248,2.47-1.076,2.905-2.449C397.574,51.134,398.033,49.223,398.641,46.998"/>
<path fill="#FFFFFF" d="M94.025,59.058c-2.008,0.027-4.324-1.05-5.937-1.91c-2.52-1.344-2.852-4.793-0.683-6.729
	c1.243-1.108,2.821-1.859,4.3-2.678c1.726-0.955,3.551-1.733,5.255-2.727c1.676-0.977,2.337-1.007,3.212,0.598
	c2.397,4.396,1.825,8.823-1.965,11.977c-0.828,0.688-1.906,0.963-2.912,1.279C94.894,58.994,94.467,59.052,94.025,59.058
	 M98.733,47.351c-2.833,1.188-5.006,2.033-7.121,3.004c-2.034,0.933-2.368,2.161-1.384,4.096c0.843,1.657,2.239,2.224,3.953,2.071
	c1.771-0.156,3.459-0.716,3.837-2.72C98.393,51.814,98.479,49.771,98.733,47.351"/>
<path fill="#FFFFFF" d="M549.631,36.648c-2.543,1.116-4.891,0.634-7.229,0.551c-2.155-0.077-4.316,0.042-6.476,0.017
	c-1.027-0.013-2.075-0.062-3.078-0.27c-1.384-0.285-1.728-0.938-1.363-2.18c1.142-3.894,5.747-7.31,9.681-6.983
	c1.066,0.089,2.229,0.6,3.095,1.252C546.785,30.936,548.785,33.283,549.631,36.648 M546.86,35.052
	c-2.884-5.078-4.462-5.394-7.098-5.048c-2.893,0.379-5.364,2.615-5.686,4.888c4.035,0.171,8.067,0.346,12.103,0.503
	C546.335,35.401,546.499,35.24,546.86,35.052"/>
<path fill="#FFFFFF" d="M197.104,38.827c-0.039,0.399-3.528,0.594-3.929,0.607c-1.335,0.05-2.674,0.03-4.01,0.052
	c-2.882,0.049-5.766,0.123-8.647,0.034c-0.065-0.002-0.254-1.502-0.265-1.629c-0.06-0.745,0.07-1.276,0.439-1.924
	c0.794-1.389,1.623-2.783,2.645-4.018c0.705-0.854,2.056-1.251,3.186-1.655c4.479-1.6,7.507-0.296,9.412,3.954
	C197.262,37.209,197.262,37.209,197.104,38.827 M194.959,37.18c-1.371-4.491-2.85-5.687-6.4-5.43
	c-3.046,0.222-5.224,2.263-5.85,5.43H194.959z"/>
</svg>
