<?xml version="1.0" encoding="utf-8"?>
<!-- Generator: Adobe Illustrator 16.0.0, SVG Export Plug-In . SVG Version: 6.00 Build 0)  -->
<!DOCTYPE svg PUBLIC "-//W3C//DTD SVG 1.1//EN" "http://www.w3.org/Graphics/SVG/1.1/DTD/svg11.dtd">
<svg version="1.1" id="Layer_1" xmlns="http://www.w3.org/2000/svg" xmlns:xlink="http://www.w3.org/1999/xlink" x="0px" y="0px"
	 width="456.167px" height="82.417px" viewBox="0 0 456.167 82.417" enable-background="new 0 0 456.167 82.417"
	 xml:space="preserve">
<g>
	<path fill="#FFFFFF" d="M387.616,23.329c9.775-2.832,18.68-2.883,25.287,5.124c5.027-2.444,9.695-4.045,14.372-6.304
		c5.477-2.645,10.747-1.302,15.927,0.935c3.116,1.345,6.068,3.069,7.689,6.181c0.869,1.669,1.744,3.372,2.244,5.195
		c0.558,2.035,0.496,4.15,0.552,6.24c0.09,3.399,0.533,6.781,0.509,10.184c-0.034,4.201-0.306,8.394-0.5,12.589
		c-0.177,3.824,0.043,9.828,0.056,13.671c0.003,0.779,0.143,1.433-0.477,1.765c-0.583,0.313-1.657,0.054-2.302,0.081
		c-1.458,0.062-2.969,0.144-4.431,0.315c-1.93,0.225-3.898,0.137-5.837,0.275c-1.348,0.096-2.753,0.318-4.103,0.236
		c-0.364-3.858-0.998-9.693-0.91-13.562c0.088-3.901-0.46-7.807-0.583-11.703c-0.108-3.426-0.308-6.858-0.691-10.262
		c-0.336-2.98-2.857-5.107-5.188-4.263c-2.208,0.799-4.46,2.138-4.74,4.807c-0.396,3.786-0.574,7.608-0.595,11.416
		c-0.02,3.576,0.115,7.151,0.161,10.727c0.021,1.68,0.16,6.197-0.089,7.858c-0.192,1.284,0.284,2.764-0.133,4.009
		c-0.254,0.757-1.338,0.569-2.215,0.656c-1.902,0.188-3.832,0.402-5.741,0.565c-3.256,0.277-6.408,0.624-9.657,0.079
		c-1.424-0.239-1.138-1.182-1.137-2.481c0.01-9.524-0.349-21.804-0.706-31.32c-0.1-2.653-1.83-5.573-3.96-7.087
		c-2.495-1.775-7.161-0.648-7.485,2.849c-0.318,3.451-0.778,6.9-0.856,10.368c-0.062,2.799,0.07,5.597,0.048,8.396
		c-0.021,2.694-0.315,5.383-0.229,8.079c0.082,2.55,0.105,6.054,0.127,8.605c0.001,0.088,0.018,1.886-0.027,1.888
		c-3.96,0.143-7.831,0.259-11.81,0.259c-2.485,0-5.301,0.324-7.758-0.031c-0.057-1.459-0.252-2.899-0.525-4.333
		c-0.224-1.168-0.057-2.272-0.077-3.466c-0.054-3.051-0.109-7.049-0.166-10.1c-0.113-6.032-0.23-12.064-0.34-18.097
		c-0.094-5.185-0.16-10.37-0.255-15.555c-0.037-2.075-0.298-4.168-0.07-6.21c0.071-0.642,1.365-1.56,2.168-1.637
		c3.731-0.359,7.484-0.528,11.234-0.642C386.504,19.564,387.99,20.394,387.616,23.329z M420.231,75.116
		c0-4.4-0.071-11.36,0.019-15.573c0.109-5.166,0.18-10.343,0.589-15.489c0.369-4.65,5.492-8.48,10.213-8.005
		c4.222,0.425,7.644,4.23,7.841,9.152c0.15,3.76,0.215,7.521,0.308,11.282c0.092,3.674,0.758,7.356,0.409,11.034
		c-0.169,1.775-1.345,7.417,0.552,8.646c0.194,0.126,1.019-0.004,1.26-0.004c1.599,0,3.12-0.039,4.703-0.269
		c1.431-0.208,2.916-0.243,4.364-0.413c0.533-1.453,0.175-6.056,0.101-7.558c-0.434-8.765-0.13-17.537-0.901-26.295
		c-0.322-3.668-0.902-6.807-2.302-10.169c-2.37-5.699-12.462-8.545-17.259-6.574c-5.031,2.066-9.858,3.728-13.442,8.074
		c-1.852,2.246-4.071,1.946-6.104-0.307c-1.629-1.805-3.243-3.814-5.284-5.021c-1.119-0.662-2.312-1.2-3.556-1.582
		c-2.675-0.821-5.54-0.878-8.241-0.144c-1.655,0.45-3.174,1.269-4.642,2.139c-0.897,0.532-1.826,1.007-2.736,1.516
		c-0.455,0.254-0.906,0.515-1.345,0.795c-0.099,0.063-0.981,0.582-0.982,0.56c-0.042-1.22-0.04-2.44-0.039-3.661
		c0-0.584-0.023-1.172-0.003-1.756c0.012-0.312,0.18-0.895-0.058-1.153c-0.323-0.353-1.544-0.144-1.985-0.157
		c-0.945-0.029-1.893-0.027-2.839-0.023c-0.805,0.003-1.759-0.088-2.524,0.214c-1.252,0.496-1.354,1.95-1.334,3.116
		c0.067,3.9,0.124,7.8,0.131,11.701c0.02,10.791,0.005,22.529,0.025,33.319c0.003,1.153-0.282,2.701,1.467,2.769
		c3.1,0.12,6.213,0.102,9.311-0.051c1.359-0.067,2.135-0.751,2.037-2.525c-0.191-3.499,0.041-7.968,0.101-11.481
		c0.092-5.5,0.2-10.999,0.272-16.499c0.035-2.742,0.013-5.521,2.495-7.383c2.7-2.023,5.699-3.23,9.065-1.967
		c4.607,1.729,8.189,4.549,8.296,9.967c0.168,8.528,0.185,19.805,0.15,28.335c-0.008,1.892,0.487,2.65,2.469,2.386
		C413.747,75.676,416.687,75.464,420.231,75.116z"/>
	<path fill="#FFFFFF" d="M350.791,77.559c-0.299-0.36-4.635,0.929-5.209,1.057c-1.779,0.396-3.554,0.842-5.357,1.117
		c-3.482,0.531-6.907,0.069-10.241-1.018c-2.515-0.819-5.07-1.868-7.371-3.182c-6.277-3.583-8.474-12.297-5.679-19.047
		c2.514-6.073,7.057-9.469,13.006-11.353c3.698-1.171,7.491-2.037,11.201-3.173c1.183-0.362,2.284-1.081,3.306-1.803
		c0.224-0.158,0.158-1.256-0.137-1.529c-1.934-1.789-4.417-1.973-6.649-1.174c-1.075,0.384-1.776,2.116-2.411,3.359
		c-0.815,1.598-1.407,2.41-3.718,2.082c-4.062-0.578-8.261-0.158-12.398-0.287c-0.792-0.024-2.211-0.608-2.235-1.002
		c-0.111-1.801-0.372-3.913,0.408-5.391c3.183-6.028,7.562-10.813,14.295-13.246c5.289-1.91,10.428-3.093,16.19-2.591
		c7.983,0.695,12.97,4.493,16.07,11.724c1.97,4.592,2.479,9.265,2.564,14.118c0.092,5.182,0.204,10.363,0.337,15.544
		c0.064,2.511,0.349,5.117,0.2,7.624c-0.137,2.303,0.205,4.601,0.205,6.922c0,0.606,0.332,2.54,0.003,2.979
		c-0.794,1.06-3.917,0.329-5.056,0.333c-2.005,0.006-4.005,0.161-6,0.348c-1.07,0.101-3.72,0.858-4.681,0.185
		C350.643,79.599,351.377,78.268,350.791,77.559z M320.679,38.123c-0.033,0.201-0.038,0.407-0.004,0.615
		c2.155,0.101,4.325,0.023,6.485,0.089c0.934,0.028,1.867,0.153,2.801,0.059c0.915-0.093,1.193-0.287,1.555-1.078
		c1.992-4.36,9.188-5.537,13.257-4.088c3.413,1.216,7.63,5.543,3.718,8.866c-1.517,1.288-3.423,2.287-5.319,2.921
		c-3.085,1.031-6.416,1.365-9.443,2.519c-4.833,1.842-10.321,2.98-12.425,8.754c-2.137,5.865-3.271,9.87,2.197,14.126
		c2.701,2.103,5.88,3.833,9.161,4.815c6.033,1.806,13.062-0.368,18.782-2.472c0.115-0.042,2.223-0.858,2.031-1.084
		c0.642,0.757,0.431,3.257,0.368,4.312c0.022-0.369,8.798-0.517,8.813-0.903c0.21-5.196-0.321-10.465-0.429-15.667
		c-0.121-5.875-0.238-11.751-0.329-17.627c-0.073-4.708-1.412-9.214-4.095-12.822c-2.837-3.816-7.354-5.23-12.269-5.292
		c-4.465-0.056-8.81,1.139-12.838,3.005c-1.39,0.643-2.797,1.278-4.076,2.125c-2.36,1.562-4.237,3.599-6.146,5.659
		C321.634,35.862,320.886,36.869,320.679,38.123z"/>
	<path fill="#FFFFFF" d="M113.618,77.935c-0.037,0.009-0.073,0.018-0.109,0.026c-0.328-0.104-1.437,0.449-1.797,0.549
		c-0.543,0.15-1.09,0.289-1.64,0.414c-1.116,0.254-2.245,0.454-3.381,0.594c-2.198,0.27-4.424,0.311-6.628,0.098
		c-4.516-0.435-8.855-1.95-12.784-4.195c-3.651-2.086-5.652-6.031-7.263-9.757c-0.551-1.275-0.953-2.656-1.169-4.03
		c-0.358-2.275-0.556-4.575-0.605-6.877c-0.133-6.206-0.145-13.127,0.252-19.316c0.141-2.199,0.298-4.366,0.298-6.566
		c0-0.957-0.047-1.935,0.01-2.887c1.207-0.056,2.466,0.21,3.653-0.061c1.096-0.25,2.202-0.114,3.312-0.117
		c1.284-0.003,2.557-0.195,3.833-0.301c1.26-0.104,2.51,0.105,3.766,0.164c1.222,0.057,2.446-0.102,3.666,0.009
		c0.274,0.025,0.165,5.182,0.166,5.609c0.003,2.137,0.002,4.274-0.017,6.411c-0.062,6.909-0.283,14.521,1.294,21.322
		c1.261,5.44,7.754,7.686,11.987,3.937c1.234-1.093,2.127-3.132,2.258-4.809c0.482-6.174,0.62-13.071,0.795-19.266
		c0.061-2.152-0.083-4.316-0.26-6.465c-0.063-0.773-0.09-1.542-0.09-2.324c0-0.858,0-1.716,0-2.574c0-1.455,0.631-1.125,1.865-1.378
		c1.089-0.225,2.081-0.295,3.203-0.319c2.125-0.044,4.25-0.124,6.37-0.27c1.947-0.133,4.052-0.319,5.998-0.054
		c0.364,0.049,0.431,3.249,0.45,3.567c0.174,2.91,0.125,5.833,0.162,8.747c0.059,4.63,0.151,9.261,0.168,13.892
		c0.023,6.145-0.304,12.981-0.107,19.125c0.054,1.669,0.285,3.36,0.09,5.028c-0.136,1.163,0.086,2.339-0.032,3.512
		c-2.339,0.191-4.679,0.392-7.026,0.462c-2.101,0.062-4.209,0.339-6.307,0.339c-1.378,0-2.771,0.046-4.146-0.006
		C113.73,79.442,114.057,78.576,113.618,77.935z M116.646,29.877c0,0.919,0,1.395,0,1.871c-0.006,8.703,0.052,18.099-0.045,26.8
		c-0.048,4.324-4.448,9.173-8.668,9.714c-1.415,0.181-2.89-0.128-4.312,0.024c-2.824,0.303-4.543-1.322-6.383-3.091
		c-2.923-2.809-2.88-6.516-3.097-10c-0.42-6.754-0.45-14.229-0.551-21c-0.079-5.309-0.017-5.31-5.266-5.142
		c-6.155,0.196-6.349,0.41-6.275,6.714c0.083,7.081,0.013,14.861,0.272,21.935c0.214,5.84,2.676,11.031,7.38,14.292
		c6.011,4.165,12.992,5.117,20.155,3.038c2.031-0.59,4.002-1.437,5.93-2.32c2.343-1.074,3.698-0.445,4.396,2.03
		c0.152,0.542,0.976,1.229,1.521,1.258c1.251,0.065,2.52-0.336,3.785-0.36c1.382-0.026,1.788-0.778,1.847-1.956
		c0.259-5.174,0.704-10.347,0.733-15.522c0.041-7.093-0.243-14.882-0.367-21.977c-0.038-2.146-0.006-4.293-0.006-6.947
		C123.93,29.456,120.39,29.66,116.646,29.877z"/>
	<path fill="#FFFFFF" d="M310.21,57.005c1.694,1.004,1.837,2.671,1.201,4.684c-0.648,2.049-0.806,4.303-1.722,6.205
		c-0.917,1.9-2.171,3.984-3.862,5.103c-6.587,4.356-13.864,7.206-21.831,7.442c-5.838,0.173-11.039-2.013-15.304-6.079
		c-2.294-2.186-4.878-4.261-6.525-6.89c-3.812-6.079-5.125-12.845-3.45-19.935c0.609-2.577,1.528-5.147,2.736-7.5
		c1.573-3.066,3.209-6.244,5.493-8.76c2.333-2.57,5.293-4.735,8.334-6.446c2.494-1.404,5.464-2.088,8.305-2.729
		c7.899-1.783,14.311,1.298,20.022,6.473c4.93,4.466,8.035,10.033,9.349,16.459c0.536,2.619,0.296,5.501-0.147,8.172
		C312.583,54.568,311.128,55.727,310.21,57.005z M275.219,52.319c6.169,0,12.241-0.006,18.313,0.002
		c3.733,0.004,7.502,0.362,11.191-0.032c5.184-0.554,5.937-1.753,4.347-6.42c-0.582-1.711-1.443-3.329-1.994-5.048
		c-2.003-6.26-6.295-10.565-11.796-13.764c-4.804-2.793-9.946-2.678-14.957-0.756c-6.133,2.353-10.444,6.719-14.182,12.212
		c-5.267,7.741-5.405,19.631-0.193,27.1c2.986,4.279,7.166,7.375,11.79,9.505c2.335,1.077,4.915,1.486,7.47,1.538
		c1.145,0.023,2.313,0.011,3.453-0.115c2.098-0.232,4.48-0.867,6.487-1.535c2.096-0.698,4.08-1.734,5.859-3.043
		c1.015-0.747,1.97-1.569,2.854-2.466c1.264-1.283,2.525-2.75,3.337-4.371c0.54-1.078,0.536-2.052,0.655-3.206
		c0.016-0.15,0.288-0.607,0.132-0.807c-0.003-0.022-0.006-0.043-0.009-0.065c-0.517-0.02-6.124-0.441-6.134-0.358
		c-0.059,0.515-0.73,1.058-1.016,1.488c-1.554,2.345-4.932,4.2-7.621,4.814c-2.014,0.46-4.198,0.402-6.251,0.303
		c-2.013-0.098-4.579-0.127-6.361-1.146c-1.465-0.837-2.663-2.089-3.568-3.502C275.103,59.65,274.359,55.792,275.219,52.319z
		 M278.562,56.459c-0.053,0,1.143,2.673,1.333,2.95c0.566,0.823,1.284,1.538,2.123,2.081c1.275,0.825,2.924,1.325,4.452,1.236
		c1.872-0.108,3.799-0.196,5.658-0.549c3.882-0.738,7.593-2.554,10.086-5.691C294.353,56.14,286.441,56.459,278.562,56.459z"/>
	<path fill="#FFFFFF" d="M219.846,71.213c0.05-2.373,0.098-4.746,0.104-7.118c0.028-10.406,0.089-24.38-0.066-34.785
		c-0.099-6.616-0.068-6.72-6.866-6.729c-4.825-0.008-9.65,0.178-14.475,0.247c-1.216,0.018-1.873-0.435-1.772-1.885
		c0.208-2.997,0.399-5.995,0.506-8.997c0.05-1.413,0.123-2.837,0.192-4.235c0.04-0.792-0.348-2.02,0.769-2.231
		c1.9-0.36,3.901-0.204,5.827-0.266c9.483-0.303,18.919-0.595,28.411-0.409c2.647,0.052,5.295,0.115,7.941,0.194
		c3.771,0.105,7.535-0.187,11.304-0.221c1.63-0.015,3.253,0.008,4.882,0.043c0.762,0.016,1.522-0.18,2.283-0.069
		c1.061,0.155,1.014,0.905,1.12,1.841c0.08,0.703,0.268,1.383,0.269,2.1c0.003,2.562-0.111,8.132,0.048,10.684
		c0.138,2.208-0.671,2.942-2.87,2.909c-5.085-0.078-10.173,0.055-15.26,0.125c-3.243,0.045-3.384,0.135-3.514,3.345
		c-0.215,5.257-0.354,7.518-0.497,12.778c-0.169,6.228-0.416,12.456-0.423,18.684c-0.007,5.114,0.25,13.797,0.461,18.91
		c0.155,3.755-0.4,3.998-4.146,3.707c-2.658-0.207-5.328-0.205-7.991-0.093c-1.33,0.056-2.655,0.162-3.984,0.244
		c-0.788,0.048-1.935,0.161-2.3-0.739c-0.409-1.008-0.054-2.587-0.037-3.643C219.784,74.14,219.815,72.677,219.846,71.213z
		 M200.704,9.089c0,1.33,0.048,2.283-0.007,3.229c-0.066,1.132-0.265,2.292-0.258,3.425c0.006,1.09-0.109,2.509,0.229,3.552
		c0.081,0.251-0.064,0.258,0.143,0.421c0.194,0.153,1.027,0.013,1.281,0.013c5.668,0,11.342-0.476,17.008-0.128
		c1.255,0.077,2.627-0.019,3.857,0.199c0.313,1.228,0.336,2.588,0.336,3.858c0,2.617,0.295,5.223,0.276,7.844
		c-0.061,8.672-0.18,17.339-0.169,26.014c0.003,2.492,0.006,8.552,0.006,11.044c0,2.597,0,5.193,0,8.019
		c2.384,0,4.535,0.036,6.685-0.007c4.576-0.093,4.521-0.109,4.494-4.741c-0.049-8.555-0.009-20.679-0.039-29.235
		c-0.025-7.578-0.083-12.155-0.153-19.732c-0.028-3.044,0.797-3.711,3.774-3.707c3.257,0.004,6.514-0.043,9.769-0.145
		c1.57-0.049,3.178-0.034,4.73-0.241c1.359-0.181,2.775,0.087,4.137-0.24c-0.146-3.529,0.03-7.068,0.03-10.602
		C238.058,8.675,219.525,6.769,200.704,9.089z"/>
	<path fill="#FFFFFF" d="M39.517,2.579c3.416-0.199,7.091-0.529,10.239,1.045c4.561,2.279,8.841,5.494,12.531,9.049
		c4.983,4.803,9.476,10.174,11.712,16.989c4.355,13.273,4.404,26.273-5.11,37.289c-7.116,8.241-15.743,14.652-27.81,14.058
		c-5.037-0.248-10.135,0.04-14.784-2.055c-7.993-3.601-14.785-8.6-18.585-16.98c-1.874-4.132-4.039-8.083-4.792-12.651
		c-1.109-6.73-1.023-13.344,1.3-19.823c0.961-2.682,1.708-5.502,3.09-7.956c1.565-2.779,3.51-5.426,5.685-7.763
		C18.353,8.025,25.113,3.493,33.13,2.833c1.916-0.158,3.838-0.12,5.757-0.219C39.096,2.603,39.306,2.591,39.517,2.579z
		 M5.912,41.286c0,0.637-0.014,1.274,0.002,1.91c0.162,6.091,2.054,11.671,5.065,16.902c1.382,2.402,2.476,5.126,4.365,7.052
		c8.02,8.175,17.859,11.537,29.299,10.444c6.272-0.6,11.519-3.137,16.341-7.107c6.469-5.326,10.755-12.13,11.738-20.207
		c1.129-9.295-0.411-18.524-5.715-26.625c-4.202-6.418-9.853-11.417-16.21-15.667c-2.286-1.528-4.678-2.284-7.428-2.065
		c-1.649,0.131-3.316,0.037-4.972,0.099c-3.072,0.115-6.312-0.314-9.184,0.516c-9.292,2.686-15.455,9.274-19.667,17.654
		C6.882,29.493,5.499,35.239,5.912,41.286z"/>
	<path fill="#FFFFFF" d="M154.363,26.855c0.011,0.425,0.021,0.847,0.054,1.25c-0.038-0.453,2.989-2.086,3.394-2.236
		c4.779-1.764,9.657-2.39,14.728-2.39c0.643,0,1.289-0.003,1.93,0c0.183,1.335,0.212,2.739,0.26,4.067
		c0.1,2.791,0.064,5.542,0.064,8.337c0,0.986,0.015,1.978-0.004,2.962c-0.312-0.049-0.488,0.165-0.737,0.198
		c-0.642,0.084-1.345,0.076-1.993,0.124c-1.335,0.098-2.688,0.093-4.008,0.34c-2.363,0.443-5.508,1.378-7.241,3.142
		c-1.029,1.047-1.727,2.384-2.004,3.826c-0.862,4.493-1.239,9.102-1.516,13.679c-0.288,4.768-0.131,11.112-0.304,15.889
		c-0.104,2.879-0.684,3.223-3.465,3.28c-2.437,0.05-4.872,0.143-7.307,0.239c-2.269,0.089-4.525,0.359-6.797,0.271
		c-0.132-0.798-0.357-1.491-0.423-2.351c-0.113-1.46-0.035-2.922-0.019-4.383c0.107-10.085-0.369-21.741-0.369-31.831
		c0-1.051,0-2.103,0-3.154c0-1.698,0.062-3.389,0.062-5.084c0-2.733,0.04-5.48,0.188-8.167c0.061-1.047,7.905-0.361,8.695-0.373
		c1.22-0.019,2.458-0.348,3.664-0.022c1.301,0.352,1.616,0.105,2.946,0.281C154.318,25.409,154.344,26.136,154.363,26.855z
		 M142.431,28.446c0,15.688,0,32.502,0,48.058c3.901-0.188,7.212-0.346,10.489-0.504c0.249-4.644,0.361-10.5,0.74-14.78
		c0.491-5.545,0.916-11.121,1.903-16.587c0.673-3.731,3.24-6.536,6.94-7.73c2.806-0.905,5.78-1.286,8.595-1.882
		c0-0.966,0.089-2.371-0.017-3.761c-0.319-4.212-1.133-5.016-5.133-3.896c-3.764,1.055-8.058,1.441-10.031,5.86
		c-0.6,1.343-3.234,1.052-4.05-0.381c-0.454-0.797-0.36-1.903-0.803-2.711c-0.474-0.867-1.264-2.169-1.958-2.196
		C146.825,27.847,144.523,28.25,142.431,28.446z"/>
	<path fill="#FFFFFF" d="M349.552,52.594c0.888,5.357-1.381,12.528-6.302,15.306c-1.303,0.735-2.624,1.486-4.022,1.993
		c-3.294,1.193-8.67-1.163-10.116-4.319c-1.1-2.4,0.53-6.315,3.016-7.879c2.084-1.312,4.436-2.257,6.83-2.831
		c1.875-0.448,3.808-0.657,5.65-1.238c1.423-0.449,3.484-1.162,4.458-2.345C349.33,51.689,349.476,52.132,349.552,52.594z
		 M345.984,56.645c-2.168,0.644-4.148,1.197-6.106,1.825c-1.399,0.449-2.84,0.859-4.133,1.535c-1.809,0.944-2.222,2.685-1.77,4.529
		c0.491,2.002,2.175,1.816,3.711,1.656C341.986,65.743,345.065,62.234,345.984,56.645z"/>
	<path fill="#FFFFFF" d="M285.96,34.653c6.405-0.4,10.099,2.06,12.005,7.995c0.896,2.789-0.529,4.419-3.376,4.343
		c-6.082-0.162-12.17-0.144-18.255-0.112c-1.85,0.01-3-1.162-2.459-2.803C276.043,37.503,279.154,35.079,285.96,34.653z
		 M293.356,42.763c-0.813-3.47-2.832-4.769-6.607-4.75c-4.33,0.021-6.748,1.61-7.51,4.75
		C283.823,42.763,288.457,42.763,293.356,42.763z"/>
	<path fill="#FFFFFF" d="M19.605,44.135c-0.65-8.438,2.223-15.422,7.57-21.631c2.426-2.817,5.543-3.684,8.925-4.366
		c6.661-1.343,12.186,1.033,16.561,5.685c2.202,2.341,3.784,5.565,4.798,8.667c2.625,8.017,1.273,16.049-2.204,23.389
		c-2.098,4.428-5.899,7.749-11.311,9.015c-6.005,1.405-11.317,0.112-16.466-2.58c-1.468-0.768-2.825-2.185-3.663-3.635
		C21.202,54.161,19.161,49.399,19.605,44.135z M55.113,41.284c0.001-0.88-0.013-1.757-0.086-2.653
		c-0.576-7.023-3.496-13.444-10.345-16.24c-3.382-1.381-6.945-1.983-10.368-1.161c-3.941,0.946-6.14,4.329-8.071,7.703
		c-2.965,5.181-3.585,10.805-3.294,16.654c0.353,7.076,4.099,15.478,13.689,16.639c6.625,0.802,13.47-2.048,15.649-7.889
		c0.708-1.898,1.257-3.851,1.751-5.814C54.634,46.157,55.109,43.752,55.113,41.284z"/>
</g>
</svg>
