<?xml version="1.0" encoding="utf-8"?>
<!-- Generator: Adobe Illustrator 16.0.0, SVG Export Plug-In . SVG Version: 6.00 Build 0)  -->
<!DOCTYPE svg PUBLIC "-//W3C//DTD SVG 1.1//EN" "http://www.w3.org/Graphics/SVG/1.1/DTD/svg11.dtd">
<svg version="1.1" id="Black" xmlns="http://www.w3.org/2000/svg" xmlns:xlink="http://www.w3.org/1999/xlink" x="0px" y="0px"
	 width="400px" height="400px" viewBox="0 0 400 400" enable-background="new 0 0 400 400" xml:space="preserve">
<g>
	<g>
		<path fill="#4BC4D4" d="M229.09,346.486c0,4.247-8.424,7.706-25.515,7.706l0,0c-17.098,0-25.515-3.459-25.515-7.706v-9.253
			c0-4.252,8.416-7.701,25.515-7.701l0,0c17.091,0,25.515,3.452,25.515,7.701V346.486z"/>
		<g>
			<path fill="#F7F7F7" d="M248.665,282.393c0-1.18-0.959-2.14-2.14-2.14h-83.44c-1.181,0-2.139,0.96-2.139,2.14v14.977
				c0,1.181,0.958,2.14,2.139,2.14h83.44c1.181,0,2.14-0.959,2.14-2.14V282.393z"/>
			<path fill="none" stroke="#4BC4D4" stroke-width="5" stroke-linecap="round" stroke-linejoin="round" stroke-miterlimit="10" d="
				M248.665,282.393c0-1.18-0.959-2.14-2.14-2.14h-83.44c-1.181,0-2.139,0.96-2.139,2.14v14.977c0,1.181,0.958,2.14,2.139,2.14
				h83.44c1.181,0,2.14-0.959,2.14-2.14V282.393z"/>
		</g>
		<g>
			<path fill="#F7F7F7" stroke="#4BC4D4" stroke-width="5" stroke-miterlimit="10" d="M248.665,301.648
				c0-1.181-0.959-2.14-2.14-2.14h-83.44c-1.181,0-2.139,0.959-2.139,2.14v14.977c0,1.181,0.958,2.14,2.139,2.14h83.44
				c1.181,0,2.14-0.959,2.14-2.14V301.648z"/>
			<path fill="none" stroke="#4BC4D4" stroke-width="5" stroke-miterlimit="10" d="M248.665,301.648c0-1.181-0.959-2.14-2.14-2.14
				h-83.44c-1.181,0-2.139,0.959-2.139,2.14v14.977c0,1.181,0.958,2.14,2.139,2.14h83.44c1.181,0,2.14-0.959,2.14-2.14V301.648z"/>
		</g>
		<g>
			<path fill="#F7F7F7" d="M248.665,321.974c0-1.181-0.959-2.14-2.14-2.14h-83.44c-1.181,0-2.139,0.959-2.139,2.14v14.977
				c0,1.18,0.958,2.14,2.139,2.14h83.44c1.181,0,2.14-0.96,2.14-2.14V321.974z"/>
			<path fill="none" stroke="#4BC4D4" stroke-width="5" stroke-linecap="round" stroke-linejoin="round" stroke-miterlimit="10" d="
				M248.665,321.974c0-1.181-0.959-2.14-2.14-2.14h-83.44c-1.181,0-2.139,0.959-2.139,2.14v14.977c0,1.18,0.958,2.14,2.139,2.14
				h83.44c1.181,0,2.14-0.96,2.14-2.14V321.974z"/>
		</g>
		<path fill="#F7F7F7" stroke="#4BC4D4" stroke-width="5" stroke-miterlimit="10" d="M252.428,278.291
			c10.254-6.507,9.223-25.999,16.066-47.488c9.725-30.575,25.277-67.571,25.271-86.124c0-49.073-39.779-88.862-88.856-88.862
			c-49.08,0-88.855,39.789-88.855,88.862c0,18.458,15.483,54.179,25.117,84.381c7.281,22.847,6.986,42.549,18.144,49.239
			L252.428,278.291z"/>
		<path fill="none" stroke="#4BC4D4" stroke-width="3" stroke-linecap="round" stroke-linejoin="round" stroke-miterlimit="10" d="
			M197.664,275.199c0,0-82.132-158.965,0-100.28c0,0,14.232,10.536,0,19.82c-14.232,9.281-1.095-34.42,39.428-32.823
			c0,0,22.99-8.268-19.718,113.281"/>
	</g>
	
		<line fill="none" stroke="#4BC4D4" stroke-width="3" stroke-linecap="round" stroke-linejoin="round" stroke-miterlimit="10" x1="204.292" y1="6" x2="204.292" y2="29.773"/>
	
		<line fill="none" stroke="#4BC4D4" stroke-width="3" stroke-linecap="round" stroke-linejoin="round" stroke-miterlimit="10" x1="257.38" y1="20.915" x2="250.356" y2="43.859"/>
	
		<line fill="none" stroke="#4BC4D4" stroke-width="3" stroke-linecap="round" stroke-linejoin="round" stroke-miterlimit="10" x1="313.95" y1="42.196" x2="291.006" y2="65.141"/>
	
		<line fill="none" stroke="#4BC4D4" stroke-width="3" stroke-linecap="round" stroke-linejoin="round" stroke-miterlimit="10" x1="334.719" y1="93.46" x2="311.775" y2="108.351"/>
	
		<line fill="none" stroke="#4BC4D4" stroke-width="3" stroke-linecap="round" stroke-linejoin="round" stroke-miterlimit="10" x1="349.517" y1="146.057" x2="325.743" y2="146.057"/>
	
		<line fill="none" stroke="#4BC4D4" stroke-width="3" stroke-linecap="round" stroke-linejoin="round" stroke-miterlimit="10" x1="153.698" y1="20.915" x2="160.721" y2="43.859"/>
	
		<line fill="none" stroke="#4BC4D4" stroke-width="3" stroke-linecap="round" stroke-linejoin="round" stroke-miterlimit="10" x1="99.422" y1="44.489" x2="122.368" y2="67.436"/>
	
		<line fill="none" stroke="#4BC4D4" stroke-width="3" stroke-linecap="round" stroke-linejoin="round" stroke-miterlimit="10" x1="76.359" y1="93.461" x2="99.305" y2="108.351"/>
	
		<line fill="none" stroke="#4BC4D4" stroke-width="3" stroke-linecap="round" stroke-linejoin="round" stroke-miterlimit="10" x1="57" y1="145.023" x2="80.773" y2="145.023"/>
	
		<line fill="none" stroke="#4BC4D4" stroke-linecap="round" stroke-linejoin="round" stroke-miterlimit="10" x1="159.556" y1="310.295" x2="189.509" y2="341.792"/>
	
		<line fill="none" stroke="#4BC4D4" stroke-linecap="round" stroke-linejoin="round" stroke-miterlimit="10" x1="160.091" y1="280.226" x2="218.927" y2="339.062"/>
	
		<line fill="none" stroke="#4BC4D4" stroke-linecap="round" stroke-linejoin="round" stroke-miterlimit="10" x1="190.044" y1="278.086" x2="247.809" y2="335.853"/>
	
		<line fill="none" stroke="#4BC4D4" stroke-linecap="round" stroke-linejoin="round" stroke-miterlimit="10" x1="221.067" y1="277.018" x2="247.809" y2="303.761"/>
</g>
<g>
	
		<polyline fill="none" stroke="#4BC4D4" stroke-width="5" stroke-linecap="round" stroke-linejoin="round" stroke-miterlimit="10" points="
		57.167,353.847 75.389,373.847 331.014,373.847 	"/>
	
		<polygon fill="#F7F7F7" stroke="#4BC4D4" stroke-width="5" stroke-linecap="round" stroke-linejoin="round" stroke-miterlimit="10" points="
		313.514,357.692 341.014,373.195 313.514,390 323.514,373.847 	"/>
	
		<line fill="none" stroke="#4BC4D4" stroke-width="5" stroke-linecap="round" stroke-linejoin="round" stroke-miterlimit="10" x1="57.167" y1="390" x2="74.354" y2="372.812"/>
	
		<line fill="none" stroke="#4BC4D4" stroke-width="5" stroke-linecap="round" stroke-linejoin="round" stroke-miterlimit="10" x1="68.167" y1="390" x2="85.354" y2="372.812"/>
	
		<line fill="none" stroke="#4BC4D4" stroke-width="5" stroke-linecap="round" stroke-linejoin="round" stroke-miterlimit="10" x1="79.167" y1="390" x2="96.354" y2="372.812"/>
	
		<line fill="none" stroke="#4BC4D4" stroke-width="5" stroke-linecap="round" stroke-linejoin="round" stroke-miterlimit="10" x1="95.354" y1="372" x2="78.167" y2="354.812"/>
	
		<line fill="none" stroke="#4BC4D4" stroke-width="5" stroke-linecap="round" stroke-linejoin="round" stroke-miterlimit="10" x1="84.354" y1="372" x2="67.167" y2="354.812"/>
</g>
<line fill="none" stroke="#4BC4D4" stroke-width="4" stroke-linecap="round" stroke-linejoin="round" stroke-miterlimit="10" x1="75.5" y1="465" x2="331.124" y2="465"/>
<polygon fill="#F7F7F7" stroke="#4BC4D4" stroke-width="4" stroke-linecap="round" stroke-linejoin="round" stroke-miterlimit="10" points="
	313.624,448.846 341.124,464.349 313.624,481.153 323.624,465 "/>
<polygon fill="none" stroke="#4BC4D4" stroke-width="4" stroke-linecap="round" stroke-linejoin="round" stroke-miterlimit="10" points="
	88.5,441 55.5,441 75.5,465 108.5,465 "/>
<polygon fill="none" stroke="#4BC4D4" stroke-width="4" stroke-linecap="round" stroke-linejoin="round" stroke-miterlimit="10" points="
	88.5,490 55.5,490 75.5,466 108.5,466 "/>
</svg>
