<?xml version="1.0" encoding="utf-8"?>
<!-- Generator: Adobe Illustrator 16.0.0, SVG Export Plug-In . SVG Version: 6.00 Build 0)  -->
<!DOCTYPE svg PUBLIC "-//W3C//DTD SVG 1.1//EN" "http://www.w3.org/Graphics/SVG/1.1/DTD/svg11.dtd">
<svg version="1.1" id="Black" xmlns="http://www.w3.org/2000/svg" xmlns:xlink="http://www.w3.org/1999/xlink" x="0px" y="0px"
	 width="400px" height="400px" viewBox="0 0 400 400" enable-background="new 0 0 400 400" xml:space="preserve">
<g>
	<g>
		<path fill="#4BC4D4" d="M218,325.915c0,3.97-6.273,7.203-19,7.203l0,0c-12.733,0-19-3.233-19-7.203v-8.649
			c0-3.975,6.267-7.201,19-7.201l0,0c12.727,0,19,3.228,19,7.201V325.915z"/>
		<g>
			<path fill="#F7F7F7" d="M241,266c0-1.104-0.896-2-2-2h-78c-1.104,0-2,0.896-2,2v14c0,1.104,0.896,2,2,2h78c1.104,0,2-0.896,2-2
				V266z"/>
			<path fill="none" stroke="#4BC4D4" stroke-width="2" stroke-linecap="round" stroke-linejoin="round" stroke-miterlimit="10" d="
				M241,266c0-1.104-0.896-2-2-2h-78c-1.104,0-2,0.896-2,2v14c0,1.104,0.896,2,2,2h78c1.104,0,2-0.896,2-2V266z"/>
		</g>
		<g>
			<path fill="#F7F7F7" d="M241,284c0-1.104-0.896-2-2-2h-78c-1.104,0-2,0.896-2,2v14c0,1.104,0.896,2,2,2h78c1.104,0,2-0.896,2-2
				V284z"/>
			<path fill="none" stroke="#4BC4D4" stroke-width="2" stroke-linecap="round" stroke-linejoin="round" stroke-miterlimit="10" d="
				M241,284c0-1.104-0.896-2-2-2h-78c-1.104,0-2,0.896-2,2v14c0,1.104,0.896,2,2,2h78c1.104,0,2-0.896,2-2V284z"/>
		</g>
		<g>
			<path fill="#F7F7F7" d="M241,303c0-1.104-0.896-2-2-2h-78c-1.104,0-2,0.896-2,2v14c0,1.104,0.896,2,2,2h78c1.104,0,2-0.896,2-2
				V303z"/>
			<path fill="none" stroke="#4BC4D4" stroke-width="2" stroke-linecap="round" stroke-linejoin="round" stroke-miterlimit="10" d="
				M241,303c0-1.104-0.896-2-2-2h-78c-1.104,0-2,0.896-2,2v14c0,1.104,0.896,2,2,2h78c1.104,0,2-0.896,2-2V303z"/>
		</g>
		<path fill="#F7F7F7" stroke="#4BC4D4" stroke-width="5" stroke-miterlimit="10" d="M244.518,262.165
			c9.586-6.082,8.621-24.304,15.018-44.392c9.091-28.58,23.629-63.164,23.623-80.508c0-45.874-37.184-83.069-83.063-83.069
			c-45.879,0-83.062,37.195-83.062,83.069c0,17.255,14.474,50.646,23.479,78.879c6.807,21.359,6.531,39.776,16.961,46.031
			L244.518,262.165z"/>
		<path fill="none" stroke="#4BC4D4" stroke-width="2" stroke-linecap="round" stroke-linejoin="round" stroke-miterlimit="10" d="
			M193.324,259.275c0,0-76.777-148.6,0-93.742c0,0,13.305,9.849,0,18.528c-13.304,8.677-1.023-32.176,36.857-30.683
			c0,0,21.493-7.729-18.431,105.896"/>
	</g>
	
		<line fill="none" stroke="#4BC4D4" stroke-width="3" stroke-linecap="round" stroke-linejoin="round" stroke-miterlimit="10" x1="199.5" y1="6" x2="199.5" y2="29"/>
	
		<line fill="none" stroke="#4BC4D4" stroke-width="3" stroke-linecap="round" stroke-linejoin="round" stroke-miterlimit="10" x1="250.861" y1="20.429" x2="244.066" y2="42.628"/>
	
		<line fill="none" stroke="#4BC4D4" stroke-width="3" stroke-linecap="round" stroke-linejoin="round" stroke-miterlimit="10" x1="305.591" y1="41.018" x2="283.393" y2="63.217"/>
	
		<line fill="none" stroke="#4BC4D4" stroke-width="3" stroke-linecap="round" stroke-linejoin="round" stroke-miterlimit="10" x1="325.684" y1="90.615" x2="303.486" y2="105.021"/>
	
		<line fill="none" stroke="#4BC4D4" stroke-width="3" stroke-linecap="round" stroke-linejoin="round" stroke-miterlimit="10" x1="340" y1="141.5" x2="317" y2="141.5"/>
	
		<line fill="none" stroke="#4BC4D4" stroke-width="3" stroke-linecap="round" stroke-linejoin="round" stroke-miterlimit="10" x1="150.552" y1="20.429" x2="157.346" y2="42.628"/>
	
		<line fill="none" stroke="#4BC4D4" stroke-width="3" stroke-linecap="round" stroke-linejoin="round" stroke-miterlimit="10" x1="98.042" y1="43.237" x2="120.241" y2="65.437"/>
	
		<line fill="none" stroke="#4BC4D4" stroke-width="3" stroke-linecap="round" stroke-linejoin="round" stroke-miterlimit="10" x1="75.729" y1="90.616" x2="97.928" y2="105.021"/>
	
		<line fill="none" stroke="#4BC4D4" stroke-width="3" stroke-linecap="round" stroke-linejoin="round" stroke-miterlimit="10" x1="57" y1="140.5" x2="80" y2="140.5"/>
	
		<line fill="none" stroke="#4BC4D4" stroke-linecap="round" stroke-linejoin="round" stroke-miterlimit="10" x1="158.701" y1="292.083" x2="186.701" y2="321.526"/>
	
		<line fill="none" stroke="#4BC4D4" stroke-linecap="round" stroke-linejoin="round" stroke-miterlimit="10" x1="159.201" y1="263.975" x2="214.2" y2="318.974"/>
	
		<line fill="none" stroke="#4BC4D4" stroke-linecap="round" stroke-linejoin="round" stroke-miterlimit="10" x1="187.201" y1="261.975" x2="241.2" y2="315.974"/>
	
		<line fill="none" stroke="#4BC4D4" stroke-linecap="round" stroke-linejoin="round" stroke-miterlimit="10" x1="216.201" y1="260.975" x2="241.2" y2="285.975"/>
</g>
<g>
	
		<polyline fill="none" stroke="#4BC4D4" stroke-width="4" stroke-linecap="round" stroke-linejoin="round" stroke-miterlimit="10" points="
		57.167,345.5 75.389,365.5 331.013,365.5 	"/>
	
		<polygon fill="#F7F7F7" stroke="#4BC4D4" stroke-width="4" stroke-linecap="round" stroke-linejoin="round" stroke-miterlimit="10" points="
		313.513,349.346 341.013,364.849 313.513,381.653 323.513,365.5 	"/>
	
		<line fill="none" stroke="#4BC4D4" stroke-width="4" stroke-linecap="round" stroke-linejoin="round" stroke-miterlimit="10" x1="57.167" y1="381.653" x2="74.354" y2="364.466"/>
	
		<line fill="none" stroke="#4BC4D4" stroke-width="4" stroke-linecap="round" stroke-linejoin="round" stroke-miterlimit="10" x1="68.167" y1="381.653" x2="85.354" y2="364.466"/>
	
		<line fill="none" stroke="#4BC4D4" stroke-width="4" stroke-linecap="round" stroke-linejoin="round" stroke-miterlimit="10" x1="79.167" y1="381.653" x2="96.354" y2="364.466"/>
	
		<line fill="none" stroke="#4BC4D4" stroke-width="4" stroke-linecap="round" stroke-linejoin="round" stroke-miterlimit="10" x1="95.354" y1="363.653" x2="78.167" y2="346.466"/>
	
		<line fill="none" stroke="#4BC4D4" stroke-width="4" stroke-linecap="round" stroke-linejoin="round" stroke-miterlimit="10" x1="84.354" y1="363.653" x2="67.167" y2="346.466"/>
</g>
<line fill="none" stroke="#4BC4D4" stroke-width="4" stroke-linecap="round" stroke-linejoin="round" stroke-miterlimit="10" x1="75.5" y1="465" x2="331.124" y2="465"/>
<polygon fill="#F7F7F7" stroke="#4BC4D4" stroke-width="4" stroke-linecap="round" stroke-linejoin="round" stroke-miterlimit="10" points="
	313.624,448.846 341.124,464.349 313.624,481.153 323.624,465 "/>
<polygon fill="none" stroke="#4BC4D4" stroke-width="4" stroke-linecap="round" stroke-linejoin="round" stroke-miterlimit="10" points="
	88.5,441 55.5,441 75.5,465 108.5,465 "/>
<polygon fill="none" stroke="#4BC4D4" stroke-width="4" stroke-linecap="round" stroke-linejoin="round" stroke-miterlimit="10" points="
	88.5,490 55.5,490 75.5,466 108.5,466 "/>
</svg>
