<?xml version="1.0" encoding="utf-8"?>
<!-- Generator: Adobe Illustrator 16.0.0, SVG Export Plug-In . SVG Version: 6.00 Build 0)  -->
<!DOCTYPE svg PUBLIC "-//W3C//DTD SVG 1.1//EN" "http://www.w3.org/Graphics/SVG/1.1/DTD/svg11.dtd">
<svg version="1.1" id="Black" xmlns="http://www.w3.org/2000/svg" xmlns:xlink="http://www.w3.org/1999/xlink" x="0px" y="0px"
	 width="400px" height="400px" viewBox="0 0 400 400" enable-background="new 0 0 400 400" xml:space="preserve">
<g>
	<path fill="#4BC4D4" d="M202,216.61c0,2.613-4.122,4.742-12.5,4.742l0,0c-8.383,0-12.5-2.129-12.5-4.742v-5.694
		c0-2.616,4.117-4.741,12.5-4.741l0,0c8.378,0,12.5,2.125,12.5,4.741V216.61z"/>
	<g>
		<path fill="#F7F7F7" d="M217,178c0-1.104-0.896-2-2-2h-50c-1.104,0-2,0.896-2,2v8c0,1.104,0.896,2,2,2h50c1.104,0,2-0.896,2-2V178
			z"/>
		<path fill="none" stroke="#4BC4D4" stroke-width="2" stroke-linecap="round" stroke-linejoin="round" stroke-miterlimit="10" d="
			M217,178c0-1.104-0.896-2-2-2h-50c-1.104,0-2,0.896-2,2v8c0,1.104,0.896,2,2,2h50c1.104,0,2-0.896,2-2V178z"/>
	</g>
	<g>
		<path fill="#F7F7F7" d="M217,190c0-1.104-0.896-2-2-2h-50c-1.104,0-2,0.896-2,2v8c0,1.104,0.896,2,2,2h50c1.104,0,2-0.896,2-2V190
			z"/>
		<path fill="none" stroke="#4BC4D4" stroke-width="2" stroke-linecap="round" stroke-linejoin="round" stroke-miterlimit="10" d="
			M217,190c0-1.104-0.896-2-2-2h-50c-1.104,0-2,0.896-2,2v8c0,1.104,0.896,2,2,2h50c1.104,0,2-0.896,2-2V190z"/>
	</g>
	<g>
		<path fill="#F7F7F7" d="M217,202c0-1.104-0.896-2-2-2h-50c-1.104,0-2,0.896-2,2v8c0,1.104,0.896,2,2,2h50c1.104,0,2-0.896,2-2V202
			z"/>
		<path fill="none" stroke="#4BC4D4" stroke-width="2" stroke-linecap="round" stroke-linejoin="round" stroke-miterlimit="10" d="
			M217,202c0-1.104-0.896-2-2-2h-50c-1.104,0-2,0.896-2,2v8c0,1.104,0.896,2,2,2h50c1.104,0,2-0.896,2-2V202z"/>
	</g>
	<path fill="#F7F7F7" stroke="#4BC4D4" stroke-width="5" stroke-miterlimit="10" d="M219.449,174.642
		c6.311-4.004,5.675-16,9.886-29.225c5.985-18.814,15.556-41.582,15.552-53c0-30.2-24.479-54.687-54.683-54.687
		s-54.683,24.487-54.683,54.687c0,11.359,9.528,33.341,15.457,51.928c4.481,14.062,4.299,26.187,11.166,30.305L219.449,174.642z"/>
	<path fill="none" stroke="#4BC4D4" stroke-width="2" stroke-linecap="round" stroke-linejoin="round" stroke-miterlimit="10" d="
		M185.747,172.739c0,0-50.545-97.827,0-61.713c0,0,8.759,6.484,0,12.198c-8.758,5.712-0.673-21.183,24.265-20.2
		c0,0,14.149-5.088-12.134,69.715"/>
</g>
<rect x="10.508" y="208.424" fill="none" width="60.395" height="57.707"/>
<text transform="matrix(1 0 0 1 10.5088 256.6729)" fill="#4BC4D4" font-family="'Helvetica-Bold'" font-size="67.1045">A</text>
<rect x="265.594" y="330.684" fill="none" width="60.393" height="57.711"/>
<text transform="matrix(1 0 0 1 265.5928 378.9326)" fill="#4BC4D4" font-family="'Helvetica-Bold'" font-size="67.1045">B</text>
<g>
	<g>
		<path fill="none" stroke="#4BC4D4" stroke-width="5" stroke-linecap="round" stroke-linejoin="round" d="M78.955,239.747
			c0,0,1.396,0.228,3.938,0.675"/>
		
			<path fill="none" stroke="#4BC4D4" stroke-width="5" stroke-linecap="round" stroke-linejoin="round" stroke-dasharray="7.9598,15.9196" d="
			M98.539,243.351c52.998,10.455,191.863,42.932,140.125,87.807c-80.357,69.697-108.71-118.399,46.974-91.41
			c149.11,25.85,113.543-114.796,25.373-117.209"/>
		<path fill="none" stroke="#4BC4D4" stroke-width="5" stroke-linecap="round" stroke-linejoin="round" d="M303.043,122.695
			c-1.318,0.088-2.646,0.206-3.984,0.355"/>
	</g>
</g>
<polyline fill="none" stroke="#4BC4D4" stroke-width="5" stroke-linecap="round" stroke-linejoin="round" stroke-miterlimit="10" points="
	306.929,141.559 287.948,122.579 305.817,104.709 "/>
<line fill="none" stroke="#4BC4D4" stroke-width="3" stroke-linecap="round" stroke-linejoin="round" stroke-miterlimit="10" x1="189.5" y1="6" x2="189.5" y2="21"/>
<line fill="none" stroke="#4BC4D4" stroke-width="3" stroke-linecap="round" stroke-linejoin="round" stroke-miterlimit="10" x1="223.625" y1="15.499" x2="219.152" y2="30.113"/>
<line fill="none" stroke="#4BC4D4" stroke-width="3" stroke-linecap="round" stroke-linejoin="round" stroke-miterlimit="10" x1="259.655" y1="29.053" x2="245.041" y2="43.667"/>
<line fill="none" stroke="#4BC4D4" stroke-width="3" stroke-linecap="round" stroke-linejoin="round" stroke-miterlimit="10" x1="272.883" y1="61.705" x2="258.27" y2="71.188"/>
<line fill="none" stroke="#4BC4D4" stroke-width="3" stroke-linecap="round" stroke-linejoin="round" stroke-miterlimit="10" x1="282" y1="95.5" x2="267" y2="95.5"/>
<line fill="none" stroke="#4BC4D4" stroke-width="3" stroke-linecap="round" stroke-linejoin="round" stroke-miterlimit="10" x1="157.588" y1="15.499" x2="162.061" y2="30.113"/>
<line fill="none" stroke="#4BC4D4" stroke-width="3" stroke-linecap="round" stroke-linejoin="round" stroke-miterlimit="10" x1="123.02" y1="30.515" x2="137.634" y2="45.129"/>
<line fill="none" stroke="#4BC4D4" stroke-width="3" stroke-linecap="round" stroke-linejoin="round" stroke-miterlimit="10" x1="108.33" y1="61.706" x2="122.944" y2="71.189"/>
<line fill="none" stroke="#4BC4D4" stroke-width="3" stroke-linecap="round" stroke-linejoin="round" stroke-miterlimit="10" x1="96" y1="94.5" x2="111" y2="94.5"/>
</svg>
