<?xml version="1.0" encoding="utf-8"?>
<!-- Generator: Adobe Illustrator 16.0.0, SVG Export Plug-In . SVG Version: 6.00 Build 0)  -->
<!DOCTYPE svg PUBLIC "-//W3C//DTD SVG 1.1//EN" "http://www.w3.org/Graphics/SVG/1.1/DTD/svg11.dtd">
<svg version="1.1" id="Black" xmlns="http://www.w3.org/2000/svg" xmlns:xlink="http://www.w3.org/1999/xlink" x="0px" y="0px"
	 width="400px" height="400px" viewBox="0 0 400 400" enable-background="new 0 0 400 400" xml:space="preserve">
<g>
	<g>
		<path fill="#4BC4D4" d="M207,155.641c0,1.723-2.978,3.126-8.5,3.126l0,0c-5.525,0-8.5-1.403-8.5-3.126v-3.754
			c0-1.725,2.975-3.125,8.5-3.125l0,0c5.522,0,8.5,1.4,8.5,3.125V155.641z"/>
		<g>
			<path fill="#FFFFFF" d="M216,131c0-1.104-0.896-2-2-2h-32c-1.104,0-2,0.896-2,2v4c0,1.104,0.896,2,2,2h32c1.104,0,2-0.896,2-2
				V131z"/>
			<path fill="none" stroke="#4BC4D4" stroke-width="2" stroke-linecap="round" stroke-linejoin="round" stroke-miterlimit="10" d="
				M216,131c0-1.104-0.896-2-2-2h-32c-1.104,0-2,0.896-2,2v4c0,1.104,0.896,2,2,2h32c1.104,0,2-0.896,2-2V131z"/>
		</g>
		<g>
			<path fill="#FFFFFF" d="M216,139c0-1.104-0.896-2-2-2h-32c-1.104,0-2,0.896-2,2v4c0,1.104,0.896,2,2,2h32c1.104,0,2-0.896,2-2
				V139z"/>
			<path fill="none" stroke="#4BC4D4" stroke-width="2" stroke-linecap="round" stroke-linejoin="round" stroke-miterlimit="10" d="
				M216,139c0-1.104-0.896-2-2-2h-32c-1.104,0-2,0.896-2,2v4c0,1.104,0.896,2,2,2h32c1.104,0,2-0.896,2-2V139z"/>
		</g>
		<g>
			<path fill="#FFFFFF" d="M216,147c0-1.104-0.896-2-2-2h-32c-1.104,0-2,0.896-2,2v4c0,1.104,0.896,2,2,2h32c1.104,0,2-0.896,2-2
				V147z"/>
			<path fill="none" stroke="#4BC4D4" stroke-width="2" stroke-linecap="round" stroke-linejoin="round" stroke-miterlimit="10" d="
				M216,147c0-1.104-0.896-2-2-2h-32c-1.104,0-2,0.896-2,2v4c0,1.104,0.896,2,2,2h32c1.104,0,2-0.896,2-2V147z"/>
		</g>
		<path fill="#FFFFFF" stroke="#4BC4D4" stroke-width="5" stroke-miterlimit="10" d="M217.119,127.977
			c4.16-2.64,3.74-10.547,6.516-19.264c3.945-12.402,10.254-27.409,10.251-34.936c0-19.907-16.136-36.047-36.045-36.047
			s-36.045,16.141-36.045,36.047c0,7.488,6.281,21.977,10.189,34.229c2.954,9.27,2.833,17.262,7.36,19.976L217.119,127.977z"/>
		<path fill="none" stroke="#4BC4D4" stroke-width="2" stroke-linecap="round" stroke-linejoin="round" stroke-miterlimit="10" d="
			M194.904,126.723c0,0-33.317-64.484,0-40.679c0,0,5.774,4.274,0,8.04c-5.773,3.766-0.444-13.962,15.995-13.314
			c0,0,9.327-3.354-7.998,45.954"/>
	</g>
	<rect x="10.508" y="208.424" fill="none" width="60.395" height="57.707"/>
	<text transform="matrix(1 0 0 1 10.5088 256.6729)" fill="#4BC4D4" font-family="'Helvetica-Bold'" font-size="67.1045">A</text>
	<rect x="265.594" y="330.684" fill="none" width="60.393" height="57.711"/>
	<text transform="matrix(1 0 0 1 265.5928 378.9326)" fill="#4BC4D4" font-family="'Helvetica-Bold'" font-size="67.1045">B</text>
	<g>
		<g>
			<path fill="none" stroke="#4BC4D4" stroke-width="5" stroke-linecap="round" stroke-linejoin="round" d="M78.955,229.747
				c0,0,1.396,0.228,3.938,0.675"/>
			
				<path fill="none" stroke="#4BC4D4" stroke-width="5" stroke-linecap="round" stroke-linejoin="round" stroke-dasharray="7.9598,15.9196" d="
				M98.539,233.351c52.998,10.455,191.863,42.932,140.125,87.807c-80.357,69.697-108.71-118.399,46.974-91.41
				c149.11,25.85,113.543-114.796,25.373-117.209"/>
			<path fill="none" stroke="#4BC4D4" stroke-width="5" stroke-linecap="round" stroke-linejoin="round" d="M303.043,112.695
				c-1.318,0.087-2.646,0.206-3.984,0.355"/>
		</g>
	</g>
	
		<polyline fill="none" stroke="#4BC4D4" stroke-width="5" stroke-linecap="round" stroke-linejoin="round" stroke-miterlimit="10" points="
		296.929,131.559 277.948,112.579 295.817,94.709 	"/>
	
		<line fill="none" stroke="#4BC4D4" stroke-width="2" stroke-linecap="round" stroke-linejoin="round" stroke-miterlimit="10" x1="198" y1="11" x2="198" y2="21"/>
	
		<line fill="none" stroke="#4BC4D4" stroke-width="2" stroke-linecap="round" stroke-linejoin="round" stroke-miterlimit="10" x1="221.056" y1="17.5" x2="217.996" y2="27.5"/>
	
		<line fill="none" stroke="#4BC4D4" stroke-width="2" stroke-linecap="round" stroke-linejoin="round" stroke-miterlimit="10" x1="245.71" y1="26.774" x2="235.71" y2="36.774"/>
	
		<line fill="none" stroke="#4BC4D4" stroke-width="2" stroke-linecap="round" stroke-linejoin="round" stroke-miterlimit="10" x1="254.762" y1="49.117" x2="244.762" y2="55.606"/>
	
		<line fill="none" stroke="#4BC4D4" stroke-width="2" stroke-linecap="round" stroke-linejoin="round" stroke-miterlimit="10" x1="261" y1="72" x2="251" y2="72"/>
	
		<line fill="none" stroke="#4BC4D4" stroke-width="2" stroke-linecap="round" stroke-linejoin="round" stroke-miterlimit="10" x1="175.87" y1="17.5" x2="178.93" y2="27.5"/>
	
		<line fill="none" stroke="#4BC4D4" stroke-width="2" stroke-linecap="round" stroke-linejoin="round" stroke-miterlimit="10" x1="152.215" y1="27.774" x2="162.215" y2="37.774"/>
	
		<line fill="none" stroke="#4BC4D4" stroke-width="2" stroke-linecap="round" stroke-linejoin="round" stroke-miterlimit="10" x1="142.164" y1="49.117" x2="152.164" y2="55.606"/>
	
		<line fill="none" stroke="#4BC4D4" stroke-width="2" stroke-linecap="round" stroke-linejoin="round" stroke-miterlimit="10" x1="134" y1="71" x2="144" y2="71"/>
</g>
</svg>
