<?xml version="1.0" encoding="utf-8"?>
<!-- Generator: Adobe Illustrator 16.0.0, SVG Export Plug-In . SVG Version: 6.00 Build 0)  -->
<!DOCTYPE svg PUBLIC "-//W3C//DTD SVG 1.1//EN" "http://www.w3.org/Graphics/SVG/1.1/DTD/svg11.dtd">
<svg version="1.1" id="Black" xmlns="http://www.w3.org/2000/svg" xmlns:xlink="http://www.w3.org/1999/xlink" x="0px" y="0px"
	 width="400px" height="400px" viewBox="0 0 400 400" enable-background="new 0 0 400 400" xml:space="preserve">
<polygon fill="none" stroke="#000000" stroke-width="3" stroke-linecap="round" stroke-linejoin="round" stroke-miterlimit="10" points="
	-0.107,-188.5 9.5,-188.5 9.5,-179.5 21.5,-179.5 21.5,-167.5 35.5,-167.5 35.5,-178.039 45.5,-178.713 45.5,-188.5 59.199,-188.5 
	69.5,-188.5 69.5,-176.5 83.5,-176.5 83.5,-167.5 94.5,-167.5 94.5,-120.5 83.5,-120.5 83.5,-108.5 71.5,-108.5 71.5,-96.5 
	58.5,-96.5 58.5,-85.5 45.5,-85.5 45.5,-73.5 35.5,-73.5 35.5,-60.5 21.5,-60.5 21.5,-73.5 9.5,-73.5 9.5,-85.5 0.5,-85.5 
	0.5,-96.5 -13.5,-96.5 -13.5,-110.5 -25.5,-110.5 -25.5,-120.5 -38.5,-120.5 -38.5,-167.5 -25.5,-167.5 -25.5,-176.5 -13.5,-176.5 
	-13.5,-188.5 "/>
<line fill="none" stroke="#000000" stroke-width="0.5" stroke-linecap="round" stroke-linejoin="round" stroke-miterlimit="10" x1="-37.5" y1="-135.845" x2="34.672" y2="-63.672"/>
<line fill="none" stroke="#000000" stroke-width="0.5" stroke-linecap="round" stroke-linejoin="round" stroke-miterlimit="10" x1="-37.5" y1="-145.929" x2="36.59" y2="-71.839"/>
<line fill="none" stroke="#000000" stroke-width="0.5" stroke-linecap="round" stroke-linejoin="round" stroke-miterlimit="10" x1="-37.5" y1="-156.845" x2="44.672" y2="-74.672"/>
<line fill="none" stroke="#000000" stroke-width="0.5" stroke-linecap="round" stroke-linejoin="round" stroke-miterlimit="10" x1="-37.5" y1="-166.929" x2="46.59" y2="-82.839"/>
<line fill="none" stroke="#000000" stroke-width="0.5" stroke-linecap="round" stroke-linejoin="round" stroke-miterlimit="10" x1="-28.5" y1="-167.929" x2="54.59" y2="-84.839"/>
<line fill="none" stroke="#000000" stroke-width="0.5" stroke-linecap="round" stroke-linejoin="round" stroke-miterlimit="10" x1="-16.5" y1="-175.845" x2="63.672" y2="-95.672"/>
<line fill="none" stroke="#000000" stroke-width="0.5" stroke-linecap="round" stroke-linejoin="round" stroke-miterlimit="10" x1="-14.5" y1="-183.929" x2="70.59" y2="-97.839"/>
<line fill="none" stroke="#000000" stroke-width="0.5" stroke-linecap="round" stroke-linejoin="round" stroke-miterlimit="10" x1="-9.5" y1="-178.845" x2="70.672" y2="-97.672"/>
<line fill="none" stroke="#000000" stroke-width="0.5" stroke-linecap="round" stroke-linejoin="round" stroke-miterlimit="10" x1="-9.5" y1="-188.929" x2="71.59" y2="-108.839"/>
<line fill="none" stroke="#000000" stroke-width="0.5" stroke-linecap="round" stroke-linejoin="round" stroke-miterlimit="10" x1="-26.5" y1="-175.845" x2="57.672" y2="-90.672"/>
<line fill="none" stroke="#000000" stroke-width="0.5" stroke-linecap="round" stroke-linejoin="round" stroke-miterlimit="10" x1="-0.5" y1="-188.929" x2="81.59" y2="-108.839"/>
<line fill="none" stroke="#000000" stroke-width="0.5" stroke-linecap="round" stroke-linejoin="round" stroke-miterlimit="10" x1="34.5" y1="-175.845" x2="90.672" y2="-119.672"/>
<line fill="none" stroke="#000000" stroke-width="0.5" stroke-linecap="round" stroke-linejoin="round" stroke-miterlimit="10" x1="42.5" y1="-177.929" x2="95.59" y2="-124.839"/>
<line fill="none" stroke="#000000" stroke-width="0.5" stroke-linecap="round" stroke-linejoin="round" stroke-miterlimit="10" x1="45.5" y1="-184.845" x2="94.672" y2="-135.672"/>
<line fill="none" stroke="#000000" stroke-width="0.5" stroke-linecap="round" stroke-linejoin="round" stroke-miterlimit="10" x1="51.5" y1="-188.929" x2="94.59" y2="-145.839"/>
<line fill="none" stroke="#000000" stroke-width="0.5" stroke-linecap="round" stroke-linejoin="round" stroke-miterlimit="10" x1="32.5" y1="-167.845" x2="83.672" y2="-116.672"/>
<polyline fill="none" stroke="#000000" stroke-width="0.5" stroke-linecap="round" stroke-linejoin="round" stroke-miterlimit="10" points="
	75.75,-175.248 80.308,-170.553 94.59,-155.839 "/>
<line fill="none" stroke="#000000" stroke-width="0.5" stroke-linecap="round" stroke-linejoin="round" stroke-miterlimit="10" x1="-38.5" y1="-126.384" x2="-32.145" y2="-120.028"/>
<line fill="none" stroke="#000000" stroke-width="0.5" stroke-linecap="round" stroke-linejoin="round" stroke-miterlimit="10" x1="8.5" y1="-79.384" x2="14.855" y2="-73.028"/>
<line fill="none" stroke="#000000" stroke-width="0.5" stroke-linecap="round" stroke-linejoin="round" stroke-miterlimit="10" x1="21.5" y1="-66.384" x2="27.855" y2="-60.028"/>
<line fill="none" stroke="#000000" stroke-width="0.5" stroke-linecap="round" stroke-linejoin="round" stroke-miterlimit="10" x1="-13.5" y1="-102.384" x2="-7.145" y2="-96.028"/>
<line fill="none" stroke="#000000" stroke-width="0.5" stroke-linecap="round" stroke-linejoin="round" stroke-miterlimit="10" x1="-26.5" y1="-115.384" x2="-21.616" y2="-110.5"/>
<line fill="none" stroke="#000000" stroke-width="0.5" stroke-linecap="round" stroke-linejoin="round" stroke-miterlimit="10" x1="62.75" y1="-189.248" x2="69.756" y2="-182"/>
<line fill="none" stroke="#000000" stroke-width="0.5" stroke-linecap="round" stroke-linejoin="round" stroke-miterlimit="10" x1="-37.5" y1="-135.845" x2="34.672" y2="-63.672"/>
<line fill="none" stroke="#000000" stroke-width="0.5" stroke-linecap="round" stroke-linejoin="round" stroke-miterlimit="10" x1="-37.5" y1="-145.929" x2="36.59" y2="-71.839"/>
<line fill="none" stroke="#000000" stroke-width="0.5" stroke-linecap="round" stroke-linejoin="round" stroke-miterlimit="10" x1="-37.5" y1="-156.845" x2="44.672" y2="-74.672"/>
<line fill="none" stroke="#000000" stroke-width="0.5" stroke-linecap="round" stroke-linejoin="round" stroke-miterlimit="10" x1="-37.5" y1="-166.929" x2="46.59" y2="-82.839"/>
<line fill="none" stroke="#000000" stroke-width="0.5" stroke-linecap="round" stroke-linejoin="round" stroke-miterlimit="10" x1="-28.5" y1="-167.929" x2="54.59" y2="-84.839"/>
<line fill="none" stroke="#000000" stroke-width="0.5" stroke-linecap="round" stroke-linejoin="round" stroke-miterlimit="10" x1="-16.5" y1="-175.845" x2="63.672" y2="-95.672"/>
<line fill="none" stroke="#000000" stroke-width="0.5" stroke-linecap="round" stroke-linejoin="round" stroke-miterlimit="10" x1="-14.5" y1="-183.929" x2="70.59" y2="-97.839"/>
<line fill="none" stroke="#000000" stroke-width="0.5" stroke-linecap="round" stroke-linejoin="round" stroke-miterlimit="10" x1="-9.5" y1="-178.845" x2="70.672" y2="-97.672"/>
<line fill="none" stroke="#000000" stroke-width="0.5" stroke-linecap="round" stroke-linejoin="round" stroke-miterlimit="10" x1="-9.5" y1="-188.929" x2="71.59" y2="-108.839"/>
<line fill="none" stroke="#000000" stroke-width="0.5" stroke-linecap="round" stroke-linejoin="round" stroke-miterlimit="10" x1="-26.5" y1="-175.845" x2="57.672" y2="-90.672"/>
<line fill="none" stroke="#000000" stroke-width="0.5" stroke-linecap="round" stroke-linejoin="round" stroke-miterlimit="10" x1="-0.5" y1="-188.929" x2="81.59" y2="-108.839"/>
<line fill="none" stroke="#000000" stroke-width="0.5" stroke-linecap="round" stroke-linejoin="round" stroke-miterlimit="10" x1="34.5" y1="-175.845" x2="90.672" y2="-119.672"/>
<line fill="none" stroke="#000000" stroke-width="0.5" stroke-linecap="round" stroke-linejoin="round" stroke-miterlimit="10" x1="42.5" y1="-177.929" x2="95.59" y2="-124.839"/>
<line fill="none" stroke="#000000" stroke-width="0.5" stroke-linecap="round" stroke-linejoin="round" stroke-miterlimit="10" x1="45.5" y1="-184.845" x2="94.672" y2="-135.672"/>
<line fill="none" stroke="#000000" stroke-width="0.5" stroke-linecap="round" stroke-linejoin="round" stroke-miterlimit="10" x1="51.5" y1="-188.929" x2="94.59" y2="-145.839"/>
<line fill="none" stroke="#000000" stroke-width="0.5" stroke-linecap="round" stroke-linejoin="round" stroke-miterlimit="10" x1="32.5" y1="-167.845" x2="83.672" y2="-116.672"/>
<polyline fill="none" stroke="#000000" stroke-width="0.5" stroke-linecap="round" stroke-linejoin="round" stroke-miterlimit="10" points="
	75.75,-175.248 80.308,-170.553 94.59,-155.839 "/>
<line fill="none" stroke="#000000" stroke-width="0.5" stroke-linecap="round" stroke-linejoin="round" stroke-miterlimit="10" x1="-38.5" y1="-126.384" x2="-32.145" y2="-120.028"/>
<line fill="none" stroke="#000000" stroke-width="0.5" stroke-linecap="round" stroke-linejoin="round" stroke-miterlimit="10" x1="8.5" y1="-79.384" x2="14.855" y2="-73.028"/>
<line fill="none" stroke="#000000" stroke-width="0.5" stroke-linecap="round" stroke-linejoin="round" stroke-miterlimit="10" x1="21.5" y1="-66.384" x2="27.855" y2="-60.028"/>
<line fill="none" stroke="#000000" stroke-width="0.5" stroke-linecap="round" stroke-linejoin="round" stroke-miterlimit="10" x1="-13.5" y1="-102.384" x2="-7.145" y2="-96.028"/>
<line fill="none" stroke="#000000" stroke-width="0.5" stroke-linecap="round" stroke-linejoin="round" stroke-miterlimit="10" x1="-26.5" y1="-115.384" x2="-21.616" y2="-110.5"/>
<line fill="none" stroke="#000000" stroke-width="0.5" stroke-linecap="round" stroke-linejoin="round" stroke-miterlimit="10" x1="62.75" y1="-189.248" x2="69.756" y2="-182"/>
<polygon fill="none" stroke="#ED2D92" stroke-width="5" stroke-linecap="round" stroke-linejoin="round" stroke-miterlimit="10" points="
	118.572,20.5 144.5,20.5 144.5,44.5 178.5,44.5 178.5,79.5 218.5,79.5 218.5,47.648 246.5,45.75 246.5,20.5 285.792,20.5 
	313.5,20.5 313.5,52.5 353.5,52.5 353.5,79.5 384.5,79.5 384.5,211.5 353.5,211.5 353.5,245.5 319.5,245.5 319.5,279.5 282.5,279.5 
	282.5,308.5 246.5,308.5 246.5,343.5 218.5,343.5 218.5,380.5 178.5,380.5 178.5,343.5 144.5,343.5 144.5,308.5 118.5,308.5 
	118.5,279.5 80.5,279.5 80.5,238.5 46.5,238.5 46.5,211.5 9.5,211.5 9.5,79.5 46.5,79.5 46.5,52.5 80.5,52.5 80.5,20.5 "/>
<line fill="none" stroke="#ED2D92" stroke-linecap="round" stroke-linejoin="round" stroke-miterlimit="10" x1="10.318" y1="163.874" x2="216.563" y2="370.119"/>
<line fill="none" stroke="#ED2D92" stroke-linecap="round" stroke-linejoin="round" stroke-miterlimit="10" x1="10.318" y1="135.058" x2="222.042" y2="346.782"/>
<line fill="none" stroke="#ED2D92" stroke-linecap="round" stroke-linejoin="round" stroke-miterlimit="10" x1="10.318" y1="104.59" x2="244.832" y2="339.104"/>
<line fill="none" stroke="#ED2D92" stroke-linecap="round" stroke-linejoin="round" stroke-miterlimit="10" x1="13.138" y1="78.975" x2="246.5" y2="312.338"/>
<line fill="none" stroke="#ED2D92" stroke-linecap="round" stroke-linejoin="round" stroke-miterlimit="10" x1="41.333" y1="78.975" x2="272.795" y2="310.437"/>
<line fill="none" stroke="#ED2D92" stroke-linecap="round" stroke-linejoin="round" stroke-miterlimit="10" x1="72.35" y1="53.837" x2="298.405" y2="279.893"/>
<line fill="none" stroke="#ED2D92" stroke-linecap="round" stroke-linejoin="round" stroke-miterlimit="10" x1="80.808" y1="33.896" x2="317.909" y2="273.783"/>
<line fill="none" stroke="#ED2D92" stroke-linecap="round" stroke-linejoin="round" stroke-miterlimit="10" x1="92.087" y1="45.377" x2="318.142" y2="274.253"/>
<line fill="none" stroke="#ED2D92" stroke-linecap="round" stroke-linejoin="round" stroke-miterlimit="10" x1="95.052" y1="19.873" x2="320.729" y2="242.766"/>
<line fill="none" stroke="#ED2D92" stroke-linecap="round" stroke-linejoin="round" stroke-miterlimit="10" x1="46.154" y1="55.837" x2="281.487" y2="293.991"/>
<line fill="none" stroke="#ED2D92" stroke-linecap="round" stroke-linejoin="round" stroke-miterlimit="10" x1="121.107" y1="20.5" x2="348.925" y2="242.766"/>
<line fill="none" stroke="#ED2D92" stroke-linecap="round" stroke-linejoin="round" stroke-miterlimit="10" x1="216.15" y1="53.837" x2="374.534" y2="212.223"/>
<line fill="none" stroke="#ED2D92" stroke-linecap="round" stroke-linejoin="round" stroke-miterlimit="10" x1="238.707" y1="47.96" x2="385.452" y2="194.706"/>
<line fill="none" stroke="#ED2D92" stroke-linecap="round" stroke-linejoin="round" stroke-miterlimit="10" x1="247.166" y1="28.459" x2="385.812" y2="167.107"/>
<line fill="none" stroke="#ED2D92" stroke-linecap="round" stroke-linejoin="round" stroke-miterlimit="10" x1="267.638" y1="20.5" x2="385.58" y2="138.441"/>
<line fill="none" stroke="#ED2D92" stroke-linecap="round" stroke-linejoin="round" stroke-miterlimit="10" x1="211.093" y1="78.975" x2="354.796" y2="220.682"/>
<polyline fill="none" stroke="#ED2D92" stroke-linecap="round" stroke-linejoin="round" stroke-miterlimit="10" points="
	329.529,52.5 343.089,66.47 385.58,110.245 "/>
<g>
	<g>
		<path fill="#F7F7F7" d="M249,186c0-2.762-2.239-5-5-5h-87c-2.761,0-5,2.238-5,5v58c0,2.762,2.239,5,5,5h87c2.761,0,5-2.238,5-5
			V186z"/>
		<path fill="none" stroke="#ED2D92" stroke-width="4" stroke-linecap="round" stroke-linejoin="round" stroke-miterlimit="10" d="
			M249,186c0-2.762-2.239-5-5-5h-87c-2.761,0-5,2.238-5,5v58c0,2.762,2.239,5,5,5h87c2.761,0,5-2.238,5-5V186z"/>
	</g>
	
		<path fill="#F7F7F7" stroke="#ED2D92" stroke-width="4" stroke-linecap="round" stroke-linejoin="round" stroke-miterlimit="10" d="
		M231.662,149.469c0,16.935-13.736,30.669-30.673,30.669c-16.938,0-30.67-13.734-30.67-30.669c0-16.945,13.731-30.675,30.67-30.675
		C217.925,118.794,231.662,132.523,231.662,149.469z"/>
	
		<line fill="none" stroke="#ED2D92" stroke-width="4" stroke-linecap="round" stroke-linejoin="round" stroke-miterlimit="10" x1="168" y1="248" x2="168" y2="214"/>
	
		<line fill="none" stroke="#ED2D92" stroke-width="4" stroke-linecap="round" stroke-linejoin="round" stroke-miterlimit="10" x1="231" y1="248" x2="231" y2="214"/>
</g>
<line fill="none" stroke="#ED2D92" stroke-linecap="round" stroke-linejoin="round" stroke-miterlimit="10" x1="10.318" y1="193.296" x2="28.238" y2="211.217"/>
<line fill="none" stroke="#ED2D92" stroke-linecap="round" stroke-linejoin="round" stroke-miterlimit="10" x1="142.84" y1="325.818" x2="160.76" y2="343.738"/>
<line fill="none" stroke="#ED2D92" stroke-linecap="round" stroke-linejoin="round" stroke-miterlimit="10" x1="179.495" y1="362.475" x2="197.415" y2="380.394"/>
<line fill="none" stroke="#ED2D92" stroke-linecap="round" stroke-linejoin="round" stroke-miterlimit="10" x1="80.808" y1="260.966" x2="98.729" y2="278.888"/>
<line fill="none" stroke="#ED2D92" stroke-linecap="round" stroke-linejoin="round" stroke-miterlimit="10" x1="44.154" y1="224.312" x2="57.923" y2="238.084"/>
<line fill="none" stroke="#ED2D92" stroke-linecap="round" stroke-linejoin="round" stroke-miterlimit="10" x1="300.111" y1="20.5" x2="315.558" y2="36.48"/>
<polygon fill="none" stroke="#4BC4D4" stroke-width="3" stroke-linecap="round" stroke-linejoin="round" stroke-miterlimit="10" points="
	323.893,-188.5 333.5,-188.5 333.5,-179.5 345.5,-179.5 345.5,-167.5 359.5,-167.5 359.5,-178.039 369.5,-178.713 369.5,-188.5 
	383.199,-188.5 393.5,-188.5 393.5,-176.5 407.5,-176.5 407.5,-167.5 418.5,-167.5 418.5,-120.5 407.5,-120.5 407.5,-108.5 
	395.5,-108.5 395.5,-96.5 382.5,-96.5 382.5,-85.5 369.5,-85.5 369.5,-73.5 359.5,-73.5 359.5,-60.5 345.5,-60.5 345.5,-73.5 
	333.5,-73.5 333.5,-85.5 324.5,-85.5 324.5,-96.5 310.5,-96.5 310.5,-110.5 298.5,-110.5 298.5,-120.5 285.5,-120.5 285.5,-167.5 
	298.5,-167.5 298.5,-176.5 310.5,-176.5 310.5,-188.5 "/>
<line fill="none" stroke="#4BC4D4" stroke-width="0.5" stroke-linecap="round" stroke-linejoin="round" stroke-miterlimit="10" x1="286.5" y1="-135.845" x2="358.672" y2="-63.672"/>
<line fill="none" stroke="#4BC4D4" stroke-width="0.5" stroke-linecap="round" stroke-linejoin="round" stroke-miterlimit="10" x1="286.5" y1="-145.929" x2="360.59" y2="-71.839"/>
<line fill="none" stroke="#4BC4D4" stroke-width="0.5" stroke-linecap="round" stroke-linejoin="round" stroke-miterlimit="10" x1="286.5" y1="-156.845" x2="368.672" y2="-74.672"/>
<line fill="none" stroke="#4BC4D4" stroke-width="0.5" stroke-linecap="round" stroke-linejoin="round" stroke-miterlimit="10" x1="286.5" y1="-166.929" x2="370.59" y2="-82.839"/>
<line fill="none" stroke="#4BC4D4" stroke-width="0.5" stroke-linecap="round" stroke-linejoin="round" stroke-miterlimit="10" x1="295.5" y1="-167.929" x2="378.59" y2="-84.839"/>
<line fill="none" stroke="#4BC4D4" stroke-width="0.5" stroke-linecap="round" stroke-linejoin="round" stroke-miterlimit="10" x1="307.5" y1="-175.845" x2="387.672" y2="-95.672"/>
<line fill="none" stroke="#4BC4D4" stroke-width="0.5" stroke-linecap="round" stroke-linejoin="round" stroke-miterlimit="10" x1="309.5" y1="-183.929" x2="394.59" y2="-97.839"/>
<line fill="none" stroke="#4BC4D4" stroke-width="0.5" stroke-linecap="round" stroke-linejoin="round" stroke-miterlimit="10" x1="314.5" y1="-178.845" x2="394.672" y2="-97.672"/>
<line fill="none" stroke="#4BC4D4" stroke-width="0.5" stroke-linecap="round" stroke-linejoin="round" stroke-miterlimit="10" x1="314.5" y1="-188.929" x2="395.59" y2="-108.839"/>
<line fill="none" stroke="#4BC4D4" stroke-width="0.5" stroke-linecap="round" stroke-linejoin="round" stroke-miterlimit="10" x1="297.5" y1="-175.845" x2="381.672" y2="-90.672"/>
<line fill="none" stroke="#4BC4D4" stroke-width="0.5" stroke-linecap="round" stroke-linejoin="round" stroke-miterlimit="10" x1="323.5" y1="-188.929" x2="405.59" y2="-108.839"/>
<line fill="none" stroke="#4BC4D4" stroke-width="0.5" stroke-linecap="round" stroke-linejoin="round" stroke-miterlimit="10" x1="358.5" y1="-175.845" x2="414.672" y2="-119.672"/>
<line fill="none" stroke="#4BC4D4" stroke-width="0.5" stroke-linecap="round" stroke-linejoin="round" stroke-miterlimit="10" x1="366.5" y1="-177.929" x2="419.59" y2="-124.839"/>
<line fill="none" stroke="#4BC4D4" stroke-width="0.5" stroke-linecap="round" stroke-linejoin="round" stroke-miterlimit="10" x1="369.5" y1="-184.845" x2="418.672" y2="-135.672"/>
<line fill="none" stroke="#4BC4D4" stroke-width="0.5" stroke-linecap="round" stroke-linejoin="round" stroke-miterlimit="10" x1="375.5" y1="-188.929" x2="418.59" y2="-145.839"/>
<line fill="none" stroke="#4BC4D4" stroke-width="0.5" stroke-linecap="round" stroke-linejoin="round" stroke-miterlimit="10" x1="356.5" y1="-167.845" x2="407.672" y2="-116.672"/>
<polyline fill="none" stroke="#4BC4D4" stroke-width="0.5" stroke-linecap="round" stroke-linejoin="round" stroke-miterlimit="10" points="
	399.75,-175.248 404.308,-170.553 418.59,-155.839 "/>
<g>
	<g>
		<path fill="#FFFFFF" d="M371-126c0-2.761-2.239-5-5-5h-25c-2.761,0-5,2.239-5,5v14c0,2.761,2.239,5,5,5h25c2.761,0,5-2.239,5-5
			V-126z"/>
		<path fill="none" stroke="#4BC4D4" stroke-width="2" stroke-linecap="round" stroke-linejoin="round" stroke-miterlimit="10" d="
			M371-126c0-2.761-2.239-5-5-5h-25c-2.761,0-5,2.239-5,5v14c0,2.761,2.239,5,5,5h25c2.761,0,5-2.239,5-5V-126z"/>
	</g>
	
		<circle fill="#FFFFFF" stroke="#4BC4D4" stroke-width="2" stroke-linecap="round" stroke-linejoin="round" stroke-miterlimit="10" cx="353.124" cy="-141.928" r="10.878"/>
	
		<line fill="none" stroke="#4BC4D4" stroke-width="2" stroke-linecap="round" stroke-linejoin="round" stroke-miterlimit="10" x1="342" y1="-107" x2="342" y2="-119"/>
	
		<line fill="none" stroke="#4BC4D4" stroke-width="2" stroke-linecap="round" stroke-linejoin="round" stroke-miterlimit="10" x1="364" y1="-107" x2="364" y2="-119"/>
</g>
<line fill="none" stroke="#4BC4D4" stroke-width="0.5" stroke-linecap="round" stroke-linejoin="round" stroke-miterlimit="10" x1="285.5" y1="-126.384" x2="291.855" y2="-120.028"/>
<line fill="none" stroke="#4BC4D4" stroke-width="0.5" stroke-linecap="round" stroke-linejoin="round" stroke-miterlimit="10" x1="332.5" y1="-79.384" x2="338.855" y2="-73.028"/>
<line fill="none" stroke="#4BC4D4" stroke-width="0.5" stroke-linecap="round" stroke-linejoin="round" stroke-miterlimit="10" x1="345.5" y1="-66.384" x2="351.855" y2="-60.028"/>
<line fill="none" stroke="#4BC4D4" stroke-width="0.5" stroke-linecap="round" stroke-linejoin="round" stroke-miterlimit="10" x1="310.5" y1="-102.384" x2="316.855" y2="-96.028"/>
<line fill="none" stroke="#4BC4D4" stroke-width="0.5" stroke-linecap="round" stroke-linejoin="round" stroke-miterlimit="10" x1="297.5" y1="-115.384" x2="302.384" y2="-110.5"/>
<line fill="none" stroke="#4BC4D4" stroke-width="0.5" stroke-linecap="round" stroke-linejoin="round" stroke-miterlimit="10" x1="386.75" y1="-189.248" x2="393.756" y2="-182"/>
<polygon fill="none" stroke="#F7941D" stroke-width="3" stroke-linecap="round" stroke-linejoin="round" stroke-miterlimit="10" points="
	485.893,-188.5 495.5,-188.5 495.5,-179.5 507.5,-179.5 507.5,-167.5 521.5,-167.5 521.5,-178.039 531.5,-178.713 531.5,-188.5 
	545.199,-188.5 555.5,-188.5 555.5,-176.5 569.5,-176.5 569.5,-167.5 580.5,-167.5 580.5,-120.5 569.5,-120.5 569.5,-108.5 
	557.5,-108.5 557.5,-96.5 544.5,-96.5 544.5,-85.5 531.5,-85.5 531.5,-73.5 521.5,-73.5 521.5,-60.5 507.5,-60.5 507.5,-73.5 
	495.5,-73.5 495.5,-85.5 486.5,-85.5 486.5,-96.5 472.5,-96.5 472.5,-110.5 460.5,-110.5 460.5,-120.5 447.5,-120.5 447.5,-167.5 
	460.5,-167.5 460.5,-176.5 472.5,-176.5 472.5,-188.5 "/>
<line fill="none" stroke="#F7941D" stroke-width="0.5" stroke-linecap="round" stroke-linejoin="round" stroke-miterlimit="10" x1="448.5" y1="-135.845" x2="520.672" y2="-63.672"/>
<line fill="none" stroke="#F7941D" stroke-width="0.5" stroke-linecap="round" stroke-linejoin="round" stroke-miterlimit="10" x1="448.5" y1="-145.929" x2="522.59" y2="-71.839"/>
<line fill="none" stroke="#F7941D" stroke-width="0.5" stroke-linecap="round" stroke-linejoin="round" stroke-miterlimit="10" x1="448.5" y1="-156.845" x2="530.672" y2="-74.672"/>
<line fill="none" stroke="#F7941D" stroke-width="0.5" stroke-linecap="round" stroke-linejoin="round" stroke-miterlimit="10" x1="448.5" y1="-166.929" x2="532.59" y2="-82.839"/>
<line fill="none" stroke="#F7941D" stroke-width="0.5" stroke-linecap="round" stroke-linejoin="round" stroke-miterlimit="10" x1="457.5" y1="-167.929" x2="540.59" y2="-84.839"/>
<line fill="none" stroke="#F7941D" stroke-width="0.5" stroke-linecap="round" stroke-linejoin="round" stroke-miterlimit="10" x1="469.5" y1="-175.845" x2="549.672" y2="-95.672"/>
<line fill="none" stroke="#F7941D" stroke-width="0.5" stroke-linecap="round" stroke-linejoin="round" stroke-miterlimit="10" x1="471.5" y1="-183.929" x2="556.59" y2="-97.839"/>
<line fill="none" stroke="#F7941D" stroke-width="0.5" stroke-linecap="round" stroke-linejoin="round" stroke-miterlimit="10" x1="476.5" y1="-178.845" x2="556.672" y2="-97.672"/>
<line fill="none" stroke="#F7941D" stroke-width="0.5" stroke-linecap="round" stroke-linejoin="round" stroke-miterlimit="10" x1="476.5" y1="-188.929" x2="557.59" y2="-108.839"/>
<line fill="none" stroke="#F7941D" stroke-width="0.5" stroke-linecap="round" stroke-linejoin="round" stroke-miterlimit="10" x1="459.5" y1="-175.845" x2="543.672" y2="-90.672"/>
<line fill="none" stroke="#F7941D" stroke-width="0.5" stroke-linecap="round" stroke-linejoin="round" stroke-miterlimit="10" x1="485.5" y1="-188.929" x2="567.59" y2="-108.839"/>
<line fill="none" stroke="#F7941D" stroke-width="0.5" stroke-linecap="round" stroke-linejoin="round" stroke-miterlimit="10" x1="520.5" y1="-175.845" x2="576.672" y2="-119.672"/>
<line fill="none" stroke="#F7941D" stroke-width="0.5" stroke-linecap="round" stroke-linejoin="round" stroke-miterlimit="10" x1="528.5" y1="-177.929" x2="581.59" y2="-124.839"/>
<line fill="none" stroke="#F7941D" stroke-width="0.5" stroke-linecap="round" stroke-linejoin="round" stroke-miterlimit="10" x1="531.5" y1="-184.845" x2="580.672" y2="-135.672"/>
<line fill="none" stroke="#F7941D" stroke-width="0.5" stroke-linecap="round" stroke-linejoin="round" stroke-miterlimit="10" x1="537.5" y1="-188.929" x2="580.59" y2="-145.839"/>
<line fill="none" stroke="#F7941D" stroke-width="0.5" stroke-linecap="round" stroke-linejoin="round" stroke-miterlimit="10" x1="518.5" y1="-167.845" x2="569.672" y2="-116.672"/>
<polyline fill="none" stroke="#F7941D" stroke-width="0.5" stroke-linecap="round" stroke-linejoin="round" stroke-miterlimit="10" points="
	561.75,-175.248 566.308,-170.553 580.59,-155.839 "/>
<g>
	<g>
		<path fill="#FFFFFF" d="M533-126c0-2.761-2.238-5-5-5h-25c-2.762,0-5,2.239-5,5v14c0,2.761,2.238,5,5,5h25c2.762,0,5-2.239,5-5
			V-126z"/>
		<path fill="none" stroke="#F7941D" stroke-width="2" stroke-linecap="round" stroke-linejoin="round" stroke-miterlimit="10" d="
			M533-126c0-2.761-2.238-5-5-5h-25c-2.762,0-5,2.239-5,5v14c0,2.761,2.238,5,5,5h25c2.762,0,5-2.239,5-5V-126z"/>
	</g>
	
		<circle fill="#FFFFFF" stroke="#F7941D" stroke-width="2" stroke-linecap="round" stroke-linejoin="round" stroke-miterlimit="10" cx="515.124" cy="-141.928" r="10.878"/>
	
		<line fill="none" stroke="#F7941D" stroke-width="2" stroke-linecap="round" stroke-linejoin="round" stroke-miterlimit="10" x1="504" y1="-107" x2="504" y2="-119"/>
	
		<line fill="none" stroke="#F7941D" stroke-width="2" stroke-linecap="round" stroke-linejoin="round" stroke-miterlimit="10" x1="526" y1="-107" x2="526" y2="-119"/>
</g>
<line fill="none" stroke="#F7941D" stroke-width="0.5" stroke-linecap="round" stroke-linejoin="round" stroke-miterlimit="10" x1="447.5" y1="-126.384" x2="453.855" y2="-120.028"/>
<line fill="none" stroke="#F7941D" stroke-width="0.5" stroke-linecap="round" stroke-linejoin="round" stroke-miterlimit="10" x1="494.5" y1="-79.384" x2="500.855" y2="-73.028"/>
<line fill="none" stroke="#F7941D" stroke-width="0.5" stroke-linecap="round" stroke-linejoin="round" stroke-miterlimit="10" x1="507.5" y1="-66.384" x2="513.855" y2="-60.028"/>
<line fill="none" stroke="#F7941D" stroke-width="0.5" stroke-linecap="round" stroke-linejoin="round" stroke-miterlimit="10" x1="472.5" y1="-102.384" x2="478.855" y2="-96.028"/>
<line fill="none" stroke="#F7941D" stroke-width="0.5" stroke-linecap="round" stroke-linejoin="round" stroke-miterlimit="10" x1="459.5" y1="-115.384" x2="464.384" y2="-110.5"/>
<line fill="none" stroke="#F7941D" stroke-width="0.5" stroke-linecap="round" stroke-linejoin="round" stroke-miterlimit="10" x1="548.75" y1="-189.248" x2="555.756" y2="-182"/>
<polygon fill="none" stroke="#BFD730" stroke-width="3" stroke-linecap="round" stroke-linejoin="round" stroke-miterlimit="10" points="
	647.893,-188.5 657.5,-188.5 657.5,-179.5 669.5,-179.5 669.5,-167.5 683.5,-167.5 683.5,-178.039 693.5,-178.713 693.5,-188.5 
	707.199,-188.5 717.5,-188.5 717.5,-176.5 731.5,-176.5 731.5,-167.5 742.5,-167.5 742.5,-120.5 731.5,-120.5 731.5,-108.5 
	719.5,-108.5 719.5,-96.5 706.5,-96.5 706.5,-85.5 693.5,-85.5 693.5,-73.5 683.5,-73.5 683.5,-60.5 669.5,-60.5 669.5,-73.5 
	657.5,-73.5 657.5,-85.5 648.5,-85.5 648.5,-96.5 634.5,-96.5 634.5,-110.5 622.5,-110.5 622.5,-120.5 609.5,-120.5 609.5,-167.5 
	622.5,-167.5 622.5,-176.5 634.5,-176.5 634.5,-188.5 "/>
<line fill="none" stroke="#BFD730" stroke-width="0.5" stroke-linecap="round" stroke-linejoin="round" stroke-miterlimit="10" x1="610.5" y1="-135.845" x2="682.672" y2="-63.672"/>
<line fill="none" stroke="#BFD730" stroke-width="0.5" stroke-linecap="round" stroke-linejoin="round" stroke-miterlimit="10" x1="610.5" y1="-145.929" x2="684.59" y2="-71.839"/>
<line fill="none" stroke="#BFD730" stroke-width="0.5" stroke-linecap="round" stroke-linejoin="round" stroke-miterlimit="10" x1="610.5" y1="-156.845" x2="692.672" y2="-74.672"/>
<line fill="none" stroke="#BFD730" stroke-width="0.5" stroke-linecap="round" stroke-linejoin="round" stroke-miterlimit="10" x1="610.5" y1="-166.929" x2="694.59" y2="-82.839"/>
<line fill="none" stroke="#BFD730" stroke-width="0.5" stroke-linecap="round" stroke-linejoin="round" stroke-miterlimit="10" x1="619.5" y1="-167.929" x2="702.59" y2="-84.839"/>
<line fill="none" stroke="#BFD730" stroke-width="0.5" stroke-linecap="round" stroke-linejoin="round" stroke-miterlimit="10" x1="631.5" y1="-175.845" x2="711.672" y2="-95.672"/>
<line fill="none" stroke="#BFD730" stroke-width="0.5" stroke-linecap="round" stroke-linejoin="round" stroke-miterlimit="10" x1="633.5" y1="-183.929" x2="718.59" y2="-97.839"/>
<line fill="none" stroke="#BFD730" stroke-width="0.5" stroke-linecap="round" stroke-linejoin="round" stroke-miterlimit="10" x1="638.5" y1="-178.845" x2="718.672" y2="-97.672"/>
<line fill="none" stroke="#BFD730" stroke-width="0.5" stroke-linecap="round" stroke-linejoin="round" stroke-miterlimit="10" x1="638.5" y1="-188.929" x2="719.59" y2="-108.839"/>
<line fill="none" stroke="#BFD730" stroke-width="0.5" stroke-linecap="round" stroke-linejoin="round" stroke-miterlimit="10" x1="621.5" y1="-175.845" x2="705.672" y2="-90.672"/>
<line fill="none" stroke="#BFD730" stroke-width="0.5" stroke-linecap="round" stroke-linejoin="round" stroke-miterlimit="10" x1="647.5" y1="-188.929" x2="729.59" y2="-108.839"/>
<line fill="none" stroke="#BFD730" stroke-width="0.5" stroke-linecap="round" stroke-linejoin="round" stroke-miterlimit="10" x1="682.5" y1="-175.845" x2="738.672" y2="-119.672"/>
<line fill="none" stroke="#BFD730" stroke-width="0.5" stroke-linecap="round" stroke-linejoin="round" stroke-miterlimit="10" x1="690.5" y1="-177.929" x2="743.59" y2="-124.839"/>
<line fill="none" stroke="#BFD730" stroke-width="0.5" stroke-linecap="round" stroke-linejoin="round" stroke-miterlimit="10" x1="693.5" y1="-184.845" x2="742.672" y2="-135.672"/>
<line fill="none" stroke="#BFD730" stroke-width="0.5" stroke-linecap="round" stroke-linejoin="round" stroke-miterlimit="10" x1="699.5" y1="-188.929" x2="742.59" y2="-145.839"/>
<line fill="none" stroke="#BFD730" stroke-width="0.5" stroke-linecap="round" stroke-linejoin="round" stroke-miterlimit="10" x1="680.5" y1="-167.845" x2="731.672" y2="-116.672"/>
<polyline fill="none" stroke="#BFD730" stroke-width="0.5" stroke-linecap="round" stroke-linejoin="round" stroke-miterlimit="10" points="
	723.75,-175.248 728.308,-170.553 742.59,-155.839 "/>
<g>
	<g>
		<path fill="#FFFFFF" d="M695-126c0-2.761-2.238-5-5-5h-25c-2.762,0-5,2.239-5,5v14c0,2.761,2.238,5,5,5h25c2.762,0,5-2.239,5-5
			V-126z"/>
		<path fill="none" stroke="#BFD730" stroke-width="2" stroke-linecap="round" stroke-linejoin="round" stroke-miterlimit="10" d="
			M695-126c0-2.761-2.238-5-5-5h-25c-2.762,0-5,2.239-5,5v14c0,2.761,2.238,5,5,5h25c2.762,0,5-2.239,5-5V-126z"/>
	</g>
	
		<circle fill="#FFFFFF" stroke="#BFD730" stroke-width="2" stroke-linecap="round" stroke-linejoin="round" stroke-miterlimit="10" cx="677.124" cy="-141.928" r="10.878"/>
	
		<line fill="none" stroke="#BFD730" stroke-width="2" stroke-linecap="round" stroke-linejoin="round" stroke-miterlimit="10" x1="666" y1="-107" x2="666" y2="-119"/>
	
		<line fill="none" stroke="#BFD730" stroke-width="2" stroke-linecap="round" stroke-linejoin="round" stroke-miterlimit="10" x1="688" y1="-107" x2="688" y2="-119"/>
</g>
<line fill="none" stroke="#BFD730" stroke-linecap="round" stroke-linejoin="round" stroke-miterlimit="10" x1="609.5" y1="-126.384" x2="615.855" y2="-120.028"/>
<line fill="none" stroke="#BFD730" stroke-width="0.5" stroke-linecap="round" stroke-linejoin="round" stroke-miterlimit="10" x1="656.5" y1="-79.384" x2="662.855" y2="-73.028"/>
<line fill="none" stroke="#BFD730" stroke-width="0.5" stroke-linecap="round" stroke-linejoin="round" stroke-miterlimit="10" x1="669.5" y1="-66.384" x2="675.855" y2="-60.028"/>
<line fill="none" stroke="#BFD730" stroke-width="0.5" stroke-linecap="round" stroke-linejoin="round" stroke-miterlimit="10" x1="634.5" y1="-102.384" x2="640.855" y2="-96.028"/>
<line fill="none" stroke="#BFD730" stroke-width="0.5" stroke-linecap="round" stroke-linejoin="round" stroke-miterlimit="10" x1="621.5" y1="-115.384" x2="626.384" y2="-110.5"/>
<line fill="none" stroke="#BFD730" stroke-width="0.5" stroke-linecap="round" stroke-linejoin="round" stroke-miterlimit="10" x1="710.75" y1="-189.248" x2="717.756" y2="-182"/>
<polygon fill="none" stroke="#ED2D92" stroke-width="3" stroke-linecap="round" stroke-linejoin="round" stroke-miterlimit="10" points="
	809.893,-188.5 819.5,-188.5 819.5,-179.5 831.5,-179.5 831.5,-167.5 845.5,-167.5 845.5,-178.039 855.5,-178.713 855.5,-188.5 
	869.199,-188.5 879.5,-188.5 879.5,-176.5 893.5,-176.5 893.5,-167.5 904.5,-167.5 904.5,-120.5 893.5,-120.5 893.5,-108.5 
	881.5,-108.5 881.5,-96.5 868.5,-96.5 868.5,-85.5 855.5,-85.5 855.5,-73.5 845.5,-73.5 845.5,-60.5 831.5,-60.5 831.5,-73.5 
	819.5,-73.5 819.5,-85.5 810.5,-85.5 810.5,-96.5 796.5,-96.5 796.5,-110.5 784.5,-110.5 784.5,-120.5 771.5,-120.5 771.5,-167.5 
	784.5,-167.5 784.5,-176.5 796.5,-176.5 796.5,-188.5 "/>
<line fill="none" stroke="#ED2D92" stroke-width="0.5" stroke-linecap="round" stroke-linejoin="round" stroke-miterlimit="10" x1="772.5" y1="-135.845" x2="844.672" y2="-63.672"/>
<line fill="none" stroke="#ED2D92" stroke-width="0.5" stroke-linecap="round" stroke-linejoin="round" stroke-miterlimit="10" x1="772.5" y1="-145.929" x2="846.59" y2="-71.839"/>
<line fill="none" stroke="#ED2D92" stroke-width="0.5" stroke-linecap="round" stroke-linejoin="round" stroke-miterlimit="10" x1="772.5" y1="-156.845" x2="854.672" y2="-74.672"/>
<line fill="none" stroke="#ED2D92" stroke-width="0.5" stroke-linecap="round" stroke-linejoin="round" stroke-miterlimit="10" x1="772.5" y1="-166.929" x2="856.59" y2="-82.839"/>
<line fill="none" stroke="#ED2D92" stroke-width="0.5" stroke-linecap="round" stroke-linejoin="round" stroke-miterlimit="10" x1="781.5" y1="-167.929" x2="864.59" y2="-84.839"/>
<line fill="none" stroke="#ED2D92" stroke-width="0.5" stroke-linecap="round" stroke-linejoin="round" stroke-miterlimit="10" x1="793.5" y1="-175.845" x2="873.672" y2="-95.672"/>
<line fill="none" stroke="#ED2D92" stroke-width="0.5" stroke-linecap="round" stroke-linejoin="round" stroke-miterlimit="10" x1="795.5" y1="-183.929" x2="880.59" y2="-97.839"/>
<line fill="none" stroke="#ED2D92" stroke-width="0.5" stroke-linecap="round" stroke-linejoin="round" stroke-miterlimit="10" x1="800.5" y1="-178.845" x2="880.672" y2="-97.672"/>
<line fill="none" stroke="#ED2D92" stroke-width="0.5" stroke-linecap="round" stroke-linejoin="round" stroke-miterlimit="10" x1="800.5" y1="-188.929" x2="881.59" y2="-108.839"/>
<line fill="none" stroke="#ED2D92" stroke-width="0.5" stroke-linecap="round" stroke-linejoin="round" stroke-miterlimit="10" x1="783.5" y1="-175.845" x2="867.672" y2="-90.672"/>
<line fill="none" stroke="#ED2D92" stroke-width="0.5" stroke-linecap="round" stroke-linejoin="round" stroke-miterlimit="10" x1="809.5" y1="-188.929" x2="891.59" y2="-108.839"/>
<line fill="none" stroke="#ED2D92" stroke-width="0.5" stroke-linecap="round" stroke-linejoin="round" stroke-miterlimit="10" x1="844.5" y1="-175.845" x2="900.672" y2="-119.672"/>
<line fill="none" stroke="#ED2D92" stroke-width="0.5" stroke-linecap="round" stroke-linejoin="round" stroke-miterlimit="10" x1="852.5" y1="-177.929" x2="905.59" y2="-124.839"/>
<line fill="none" stroke="#ED2D92" stroke-width="0.5" stroke-linecap="round" stroke-linejoin="round" stroke-miterlimit="10" x1="855.5" y1="-184.845" x2="904.672" y2="-135.672"/>
<line fill="none" stroke="#ED2D92" stroke-width="0.5" stroke-linecap="round" stroke-linejoin="round" stroke-miterlimit="10" x1="861.5" y1="-188.929" x2="904.59" y2="-145.839"/>
<line fill="none" stroke="#ED2D92" stroke-width="0.5" stroke-linecap="round" stroke-linejoin="round" stroke-miterlimit="10" x1="842.5" y1="-167.845" x2="893.672" y2="-116.672"/>
<polyline fill="none" stroke="#ED2D92" stroke-width="0.5" stroke-linecap="round" stroke-linejoin="round" stroke-miterlimit="10" points="
	885.75,-175.248 890.308,-170.553 904.59,-155.839 "/>
<g>
	<g>
		<path fill="#FFFFFF" d="M857-126c0-2.761-2.238-5-5-5h-25c-2.762,0-5,2.239-5,5v14c0,2.761,2.238,5,5,5h25c2.762,0,5-2.239,5-5
			V-126z"/>
		<path fill="none" stroke="#000000" stroke-width="2" stroke-linecap="round" stroke-linejoin="round" stroke-miterlimit="10" d="
			M857-126c0-2.761-2.238-5-5-5h-25c-2.762,0-5,2.239-5,5v14c0,2.761,2.238,5,5,5h25c2.762,0,5-2.239,5-5V-126z"/>
	</g>
	
		<circle fill="#FFFFFF" stroke="#000000" stroke-width="2" stroke-linecap="round" stroke-linejoin="round" stroke-miterlimit="10" cx="839.124" cy="-141.928" r="10.878"/>
	
		<line fill="none" stroke="#000000" stroke-width="2" stroke-linecap="round" stroke-linejoin="round" stroke-miterlimit="10" x1="828" y1="-107" x2="828" y2="-119"/>
	
		<line fill="none" stroke="#000000" stroke-width="2" stroke-linecap="round" stroke-linejoin="round" stroke-miterlimit="10" x1="850" y1="-107" x2="850" y2="-119"/>
</g>
<line fill="none" stroke="#ED2D92" stroke-linecap="round" stroke-linejoin="round" stroke-miterlimit="10" x1="771.5" y1="-126.384" x2="777.855" y2="-120.028"/>
<line fill="none" stroke="#ED2D92" stroke-width="0.5" stroke-linecap="round" stroke-linejoin="round" stroke-miterlimit="10" x1="818.5" y1="-79.384" x2="824.855" y2="-73.028"/>
<line fill="none" stroke="#ED2D92" stroke-width="0.5" stroke-linecap="round" stroke-linejoin="round" stroke-miterlimit="10" x1="831.5" y1="-66.384" x2="837.855" y2="-60.028"/>
<line fill="none" stroke="#ED2D92" stroke-width="0.5" stroke-linecap="round" stroke-linejoin="round" stroke-miterlimit="10" x1="796.5" y1="-102.384" x2="802.855" y2="-96.028"/>
<line fill="none" stroke="#ED2D92" stroke-width="0.5" stroke-linecap="round" stroke-linejoin="round" stroke-miterlimit="10" x1="783.5" y1="-115.384" x2="788.384" y2="-110.5"/>
<line fill="none" stroke="#ED2D92" stroke-width="0.5" stroke-linecap="round" stroke-linejoin="round" stroke-miterlimit="10" x1="872.75" y1="-189.248" x2="879.756" y2="-182"/>
<g>
	<g>
		<path d="M47-126c0-2.761-2.239-5-5-5H17c-2.761,0-5,2.239-5,5v14c0,2.761,2.239,5,5,5h25c2.761,0,5-2.239,5-5V-126z"/>
	</g>
	<circle cx="29.124" cy="-141.928" r="10.878"/>
	
		<line fill="none" stroke="#FFFFFF" stroke-width="2" stroke-linecap="round" stroke-linejoin="round" stroke-miterlimit="10" x1="18" y1="-108" x2="18" y2="-119"/>
	
		<line fill="none" stroke="#FFFFFF" stroke-width="2" stroke-linecap="round" stroke-linejoin="round" stroke-miterlimit="10" x1="40" y1="-108" x2="40" y2="-119"/>
</g>
</svg>
